# MagicaVoxel @ Ephtracy

# group
o 

# material
mtllib valve_2.mtl
usemtl palette

# normals
vn -1 0 0
vn 1 0 0
vn 0 0 1
vn 0 0 -1
vn 0 -1 0
vn 0 1 0

# texcoords
vt 0.943359 0.5
vt 0.947266 0.5
vt 0.970703 0.5
vt 0.974609 0.5
vt 0.978516 0.5
vt 0.982422 0.5
vt 0.986328 0.5

# verts
v -0.5 0.3 0.1
v -0.5 0.3 -0.1
v -0.5 0.4 0.2
v -0.5 0.4 0.1
v -0.5 0.4 -0.1
v -0.5 0.4 -0.2
v -0.5 0.5 0.2
v -0.5 0.5 0.1
v -0.5 0.5 -0.1
v -0.5 0.5 -0.2
v -0.4 0.4 0.4
v -0.4 0.4 0.2
v -0.4 0.4 -0.2
v -0.4 0.4 -0.4
v -0.4 0.5 0.4
v -0.4 0.5 0.2
v -0.4 0.5 -0.2
v -0.4 0.5 -0.4
v -0.2 0.4 0.5
v -0.2 0.4 0.4
v -0.2 0.4 -0.4
v -0.2 0.4 -0.5
v -0.2 0.5 0.5
v -0.2 0.5 0.4
v -0.2 0.5 -0.4
v -0.2 0.5 -0.5
v -0.1 0 0.1
v -0.1 0 -0.1
v -0.1 0.3 0.5
v -0.1 0.3 0.4
v -0.1 0.3 0.1
v -0.1 0.3 0
v -0.1 0.3 -0.1
v -0.1 0.3 -0.2
v -0.1 0.3 -0.3
v -0.1 0.3 -0.5
v -0.1 0.4 0.5
v -0.1 0.4 0.4
v -0.1 0.4 0.3
v -0.1 0.4 0.1
v -0.1 0.4 -0.1
v -0.1 0.4 -0.2
v -0.1 0.4 -0.3
v -0.1 0.4 -0.4
v -0.1 0.4 -0.5
v 0.2 0.4 0.3
v 0.2 0.4 0.2
v 0.2 0.4 -0.2
v 0.2 0.4 -0.3
v 0.2 0.5 0.3
v 0.2 0.5 0.2
v 0.2 0.5 -0.2
v 0.2 0.5 -0.3
v 0.3 0.4 0.2
v 0.3 0.4 0.1
v 0.3 0.4 -0.1
v 0.3 0.4 -0.2
v 0.3 0.5 0.2
v 0.3 0.5 -0.2
v -0.3 0.4 0.2
v -0.3 0.4 0.1
v -0.3 0.4 -0.1
v -0.3 0.4 -0.2
v -0.3 0.5 0.2
v -0.3 0.5 -0.1
v -0.3 0.5 -0.2
v -0.2 0.4 0.3
v -0.2 0.4 0.2
v -0.2 0.4 -0.2
v -0.2 0.4 -0.3
v -0.2 0.5 0.3
v -0.2 0.5 0.2
v -0.2 0.5 -0.2
v -0.2 0.5 -0.3
v 0.1 0 0.1
v 0.1 0 -0.1
v 0.1 0.3 0.5
v 0.1 0.3 0.4
v 0.1 0.3 0.2
v 0.1 0.3 0.1
v 0.1 0.3 0
v 0.1 0.3 -0.1
v 0.1 0.3 -0.4
v 0.1 0.3 -0.5
v 0.1 0.4 0.5
v 0.1 0.4 0.4
v 0.1 0.4 0.3
v 0.1 0.4 0.2
v 0.1 0.4 0.1
v 0.1 0.4 -0.1
v 0.1 0.4 -0.3
v 0.1 0.4 -0.4
v 0.1 0.4 -0.5
v 0.2 0.4 0.5
v 0.2 0.4 0.4
v 0.2 0.4 -0.4
v 0.2 0.4 -0.5
v 0.2 0.5 0.5
v 0.2 0.5 0.4
v 0.2 0.5 -0.4
v 0.2 0.5 -0.5
v 0.4 0.4 0.4
v 0.4 0.4 0.3
v 0.4 0.4 0.2
v 0.4 0.4 -0.2
v 0.4 0.4 -0.3
v 0.4 0.4 -0.4
v 0.4 0.5 0.4
v 0.4 0.5 0.3
v 0.4 0.5 0.2
v 0.4 0.5 -0.2
v 0.4 0.5 -0.3
v 0.4 0.5 -0.4
v 0.5 0.3 0.1
v 0.5 0.3 -0.1
v 0.5 0.4 0.2
v 0.5 0.4 0.1
v 0.5 0.4 -0.1
v 0.5 0.4 -0.2
v 0.5 0.5 0.2
v 0.5 0.5 0.1
v 0.5 0.5 -0.1
v 0.5 0.5 -0.2
v -0.2 0.4 0.5
v -0.2 0.5 0.5
v -0.1 0.3 0.5
v -0.1 0.4 0.5
v -0.1 0.5 0.5
v 0.1 0.3 0.5
v 0.1 0.4 0.5
v 0.1 0.5 0.5
v 0.2 0.4 0.5
v 0.2 0.5 0.5
v -0.4 0.4 0.4
v -0.4 0.5 0.4
v -0.2 0.4 0.4
v -0.2 0.5 0.4
v 0.2 0.4 0.4
v 0.2 0.5 0.4
v 0.4 0.4 0.4
v 0.4 0.5 0.4
v -0.5 0.4 0.2
v -0.5 0.5 0.2
v -0.4 0.4 0.2
v -0.4 0.5 0.2
v 0.4 0.4 0.2
v 0.4 0.5 0.2
v 0.5 0.4 0.2
v 0.5 0.5 0.2
v -0.5 0.3 0.1
v -0.5 0.4 0.1
v -0.4 0.4 0.1
v -0.3 0.3 0.1
v -0.3 0.4 0.1
v -0.1 0 0.1
v -0.1 0.3 0.1
v -0.1 0.4 0.1
v 0 0.3 0.1
v 0.1 0 0.1
v 0.1 0.3 0.1
v 0.1 0.4 0.1
v 0.2 0.3 0.1
v 0.2 0.4 0.1
v 0.3 0.4 0.1
v 0.4 0.3 0.1
v 0.4 0.4 0.1
v 0.5 0.3 0.1
v 0.5 0.4 0.1
v -0.3 0.4 -0.2
v -0.3 0.5 -0.2
v -0.2 0.4 -0.2
v -0.2 0.5 -0.2
v 0.2 0.4 -0.2
v 0.2 0.5 -0.2
v 0.3 0.4 -0.2
v 0.3 0.5 -0.2
v -0.2 0.4 -0.3
v -0.2 0.5 -0.3
v -0.1 0.4 -0.3
v 0.1 0.4 -0.3
v 0.1 0.5 -0.3
v 0.2 0.4 -0.3
v 0.2 0.5 -0.3
v -0.2 0.4 0.3
v -0.2 0.5 0.3
v -0.1 0.4 0.3
v -0.1 0.5 0.3
v 0.1 0.4 0.3
v 0.2 0.4 0.3
v 0.2 0.5 0.3
v -0.3 0.4 0.2
v -0.3 0.5 0.2
v -0.2 0.4 0.2
v -0.2 0.5 0.2
v 0.2 0.4 0.2
v 0.2 0.5 0.2
v 0.3 0.4 0.2
v 0.3 0.5 0.2
v -0.5 0.3 -0.1
v -0.5 0.4 -0.1
v -0.4 0.4 -0.1
v -0.3 0.3 -0.1
v -0.3 0.4 -0.1
v -0.2 0.3 -0.1
v -0.2 0.4 -0.1
v -0.1 0 -0.1
v -0.1 0.3 -0.1
v -0.1 0.4 -0.1
v 0 0.3 -0.1
v 0.1 0 -0.1
v 0.1 0.3 -0.1
v 0.1 0.4 -0.1
v 0.2 0.3 -0.1
v 0.2 0.4 -0.1
v 0.3 0.4 -0.1
v 0.4 0.3 -0.1
v 0.4 0.4 -0.1
v 0.5 0.3 -0.1
v 0.5 0.4 -0.1
v -0.5 0.4 -0.2
v -0.5 0.5 -0.2
v -0.4 0.4 -0.2
v -0.4 0.5 -0.2
v 0.4 0.4 -0.2
v 0.4 0.5 -0.2
v 0.5 0.4 -0.2
v 0.5 0.5 -0.2
v -0.4 0.4 -0.4
v -0.4 0.5 -0.4
v -0.2 0.4 -0.4
v -0.2 0.5 -0.4
v 0.2 0.4 -0.4
v 0.2 0.5 -0.4
v 0.4 0.4 -0.4
v 0.4 0.5 -0.4
v -0.2 0.4 -0.5
v -0.2 0.5 -0.5
v -0.1 0.3 -0.5
v -0.1 0.4 -0.5
v -0.1 0.5 -0.5
v 0.1 0.3 -0.5
v 0.1 0.4 -0.5
v 0.1 0.5 -0.5
v 0.2 0.4 -0.5
v 0.2 0.5 -0.5
v -0.1 0 0.1
v 0.1 0 0.1
v -0.1 0 -0.1
v 0.1 0 -0.1
v -0.1 0.3 0.5
v 0.1 0.3 0.5
v -0.1 0.3 0.4
v 0.1 0.3 0.4
v 0 0.3 0.2
v 0.1 0.3 0.2
v -0.5 0.3 0.1
v -0.3 0.3 0.1
v -0.1 0.3 0.1
v 0 0.3 0.1
v 0.1 0.3 0.1
v 0.2 0.3 0.1
v 0.4 0.3 0.1
v 0.5 0.3 0.1
v -0.2 0.3 0
v -0.1 0.3 0
v 0.1 0.3 0
v 0.2 0.3 0
v -0.5 0.3 -0.1
v -0.3 0.3 -0.1
v -0.2 0.3 -0.1
v -0.1 0.3 -0.1
v 0 0.3 -0.1
v 0.1 0.3 -0.1
v 0.2 0.3 -0.1
v 0.4 0.3 -0.1
v 0.5 0.3 -0.1
v -0.1 0.3 -0.2
v 0 0.3 -0.2
v -0.1 0.3 -0.3
v 0 0.3 -0.3
v 0 0.3 -0.4
v 0.1 0.3 -0.4
v -0.1 0.3 -0.5
v 0.1 0.3 -0.5
v -0.2 0.4 0.5
v -0.1 0.4 0.5
v 0.1 0.4 0.5
v 0.2 0.4 0.5
v -0.4 0.4 0.4
v -0.2 0.4 0.4
v -0.1 0.4 0.4
v 0.1 0.4 0.4
v 0.2 0.4 0.4
v 0.4 0.4 0.4
v -0.3 0.4 0.3
v -0.2 0.4 0.3
v -0.1 0.4 0.3
v 0.1 0.4 0.3
v 0.2 0.4 0.3
v 0.3 0.4 0.3
v 0.4 0.4 0.3
v -0.5 0.4 0.2
v -0.4 0.4 0.2
v -0.3 0.4 0.2
v -0.2 0.4 0.2
v 0.2 0.4 0.2
v 0.3 0.4 0.2
v 0.4 0.4 0.2
v 0.5 0.4 0.2
v -0.5 0.4 0.1
v -0.4 0.4 0.1
v -0.3 0.4 0.1
v 0.3 0.4 0.1
v 0.4 0.4 0.1
v 0.5 0.4 0.1
v -0.5 0.4 -0.1
v -0.4 0.4 -0.1
v -0.3 0.4 -0.1
v 0.3 0.4 -0.1
v 0.4 0.4 -0.1
v 0.5 0.4 -0.1
v -0.5 0.4 -0.2
v -0.4 0.4 -0.2
v -0.3 0.4 -0.2
v -0.2 0.4 -0.2
v 0.2 0.4 -0.2
v 0.3 0.4 -0.2
v 0.4 0.4 -0.2
v 0.5 0.4 -0.2
v -0.3 0.4 -0.3
v -0.2 0.4 -0.3
v -0.1 0.4 -0.3
v 0.1 0.4 -0.3
v 0.2 0.4 -0.3
v 0.3 0.4 -0.3
v 0.4 0.4 -0.3
v -0.4 0.4 -0.4
v -0.2 0.4 -0.4
v -0.1 0.4 -0.4
v 0.1 0.4 -0.4
v 0.2 0.4 -0.4
v 0.4 0.4 -0.4
v -0.2 0.4 -0.5
v -0.1 0.4 -0.5
v 0.1 0.4 -0.5
v 0.2 0.4 -0.5
v -0.1 0.4 0.3
v 0.1 0.4 0.3
v 0 0.4 0.2
v 0.1 0.4 0.2
v -0.3 0.4 0.1
v -0.1 0.4 0.1
v 0 0.4 0.1
v 0.1 0.4 0.1
v 0.2 0.4 0.1
v 0.3 0.4 0.1
v -0.2 0.4 0
v -0.1 0.4 0
v 0 0.4 0
v 0.1 0.4 0
v 0.2 0.4 0
v -0.3 0.4 -0.1
v -0.2 0.4 -0.1
v -0.1 0.4 -0.1
v 0 0.4 -0.1
v 0.1 0.4 -0.1
v 0.2 0.4 -0.1
v 0.3 0.4 -0.1
v -0.1 0.4 -0.2
v 0 0.4 -0.2
v -0.1 0.4 -0.3
v 0.1 0.4 -0.3
v -0.2 0.5 0.5
v -0.1 0.5 0.5
v 0.1 0.5 0.5
v 0.2 0.5 0.5
v -0.4 0.5 0.4
v -0.2 0.5 0.4
v -0.1 0.5 0.4
v 0.1 0.5 0.4
v 0.2 0.5 0.4
v 0.4 0.5 0.4
v -0.3 0.5 0.3
v -0.2 0.5 0.3
v -0.1 0.5 0.3
v 0.2 0.5 0.3
v 0.3 0.5 0.3
v 0.4 0.5 0.3
v -0.5 0.5 0.2
v -0.4 0.5 0.2
v -0.3 0.5 0.2
v -0.2 0.5 0.2
v 0.2 0.5 0.2
v 0.3 0.5 0.2
v 0.4 0.5 0.2
v 0.5 0.5 0.2
v -0.5 0.5 0.1
v -0.4 0.5 0.1
v 0.4 0.5 0.1
v 0.5 0.5 0.1
v -0.5 0.5 -0.1
v -0.4 0.5 -0.1
v -0.3 0.5 -0.1
v 0.4 0.5 -0.1
v 0.5 0.5 -0.1
v -0.5 0.5 -0.2
v -0.4 0.5 -0.2
v -0.3 0.5 -0.2
v -0.2 0.5 -0.2
v 0.2 0.5 -0.2
v 0.3 0.5 -0.2
v 0.4 0.5 -0.2
v 0.5 0.5 -0.2
v -0.3 0.5 -0.3
v -0.2 0.5 -0.3
v 0.1 0.5 -0.3
v 0.2 0.5 -0.3
v 0.3 0.5 -0.3
v 0.4 0.5 -0.3
v -0.4 0.5 -0.4
v -0.2 0.5 -0.4
v -0.1 0.5 -0.4
v 0.1 0.5 -0.4
v 0.2 0.5 -0.4
v 0.4 0.5 -0.4
v -0.2 0.5 -0.5
v -0.1 0.5 -0.5
v 0.1 0.5 -0.5
v 0.2 0.5 -0.5

# faces
f 4/6/1 2/6/1 1/6/1
f 5/6/1 2/6/1 4/6/1
f 7/5/1 4/5/1 3/5/1
f 8/4/1 5/4/1 4/4/1
f 8/5/1 4/5/1 7/5/1
f 9/5/1 6/5/1 5/5/1
f 9/4/1 5/4/1 8/4/1
f 10/5/1 6/5/1 9/5/1
f 15/5/1 12/5/1 11/5/1
f 16/5/1 12/5/1 15/5/1
f 17/5/1 14/5/1 13/5/1
f 18/5/1 14/5/1 17/5/1
f 23/5/1 20/5/1 19/5/1
f 24/5/1 20/5/1 23/5/1
f 25/5/1 22/5/1 21/5/1
f 26/5/1 22/5/1 25/5/1
f 31/3/1 28/3/1 27/3/1
f 32/3/1 28/3/1 31/3/1
f 33/3/1 28/3/1 32/3/1
f 37/6/1 30/6/1 29/6/1
f 38/5/1 31/5/1 30/5/1
f 38/6/1 30/6/1 37/6/1
f 39/5/1 31/5/1 38/5/1
f 40/5/1 31/5/1 39/5/1
f 41/4/1 34/4/1 33/4/1
f 42/5/1 35/5/1 34/5/1
f 42/4/1 34/4/1 41/4/1
f 43/6/1 36/6/1 35/6/1
f 43/5/1 35/5/1 42/5/1
f 44/6/1 36/6/1 43/6/1
f 45/6/1 36/6/1 44/6/1
f 50/7/1 47/7/1 46/7/1
f 51/7/1 47/7/1 50/7/1
f 52/7/1 49/7/1 48/7/1
f 53/7/1 49/7/1 52/7/1
f 58/6/1 55/6/1 54/6/1
f 58/6/1 57/6/1 56/6/1
f 58/6/1 56/6/1 55/6/1
f 59/6/1 57/6/1 58/6/1
f 60/6/2 61/6/2 64/6/2
f 61/6/2 62/6/2 64/6/2
f 62/7/2 63/7/2 65/7/2
f 64/6/2 62/6/2 65/6/2
f 65/7/2 63/7/2 66/7/2
f 67/7/2 68/7/2 71/7/2
f 71/7/2 68/7/2 72/7/2
f 69/7/2 70/7/2 73/7/2
f 73/7/2 70/7/2 74/7/2
f 75/3/2 76/3/2 80/3/2
f 80/3/2 76/3/2 81/3/2
f 81/3/2 76/3/2 82/3/2
f 77/6/2 78/6/2 85/6/2
f 78/5/2 79/5/2 86/5/2
f 85/6/2 78/6/2 86/6/2
f 86/5/2 79/5/2 87/5/2
f 79/4/2 80/4/2 88/4/2
f 87/5/2 79/5/2 88/5/2
f 88/4/2 80/4/2 89/4/2
f 82/5/2 83/5/2 90/5/2
f 90/5/2 83/5/2 91/5/2
f 83/6/2 84/6/2 92/6/2
f 91/5/2 83/5/2 92/5/2
f 92/6/2 84/6/2 93/6/2
f 94/5/2 95/5/2 98/5/2
f 98/5/2 95/5/2 99/5/2
f 96/5/2 97/5/2 100/5/2
f 100/5/2 97/5/2 101/5/2
f 102/5/2 103/5/2 108/5/2
f 103/6/2 104/6/2 109/6/2
f 108/5/2 103/5/2 109/5/2
f 109/6/2 104/6/2 110/6/2
f 105/6/2 106/6/2 111/6/2
f 106/5/2 107/5/2 112/5/2
f 111/6/2 106/6/2 112/6/2
f 112/5/2 107/5/2 113/5/2
f 114/5/2 115/5/2 117/5/2
f 117/5/2 115/5/2 118/5/2
f 116/5/2 117/5/2 120/5/2
f 117/4/2 118/4/2 121/4/2
f 120/5/2 117/5/2 121/5/2
f 118/5/2 119/5/2 122/5/2
f 121/4/2 118/4/2 122/4/2
f 122/5/2 119/5/2 123/5/2
f 127/5/3 125/5/3 124/5/3
f 128/5/3 125/5/3 127/5/3
f 129/6/3 127/6/3 126/6/3
f 130/4/3 128/4/3 127/4/3
f 130/6/3 127/6/3 129/6/3
f 131/4/3 128/4/3 130/4/3
f 132/5/3 131/5/3 130/5/3
f 133/5/3 131/5/3 132/5/3
f 136/5/3 135/5/3 134/5/3
f 137/5/3 135/5/3 136/5/3
f 140/5/3 139/5/3 138/5/3
f 141/5/3 139/5/3 140/5/3
f 144/5/3 143/5/3 142/5/3
f 145/5/3 143/5/3 144/5/3
f 148/5/3 147/5/3 146/5/3
f 149/5/3 147/5/3 148/5/3
f 152/6/3 151/6/3 150/6/3
f 153/6/3 152/6/3 150/6/3
f 154/6/3 152/6/3 153/6/3
f 156/5/3 154/5/3 153/5/3
f 157/5/3 154/5/3 156/5/3
f 158/3/3 156/3/3 155/3/3
f 159/3/3 158/3/3 155/3/3
f 160/3/3 158/3/3 159/3/3
f 162/4/3 161/4/3 160/4/3
f 163/4/3 161/4/3 162/4/3
f 164/6/3 163/6/3 162/6/3
f 165/6/3 164/6/3 162/6/3
f 166/6/3 164/6/3 165/6/3
f 167/5/3 166/5/3 165/5/3
f 168/5/3 166/5/3 167/5/3
f 171/7/3 170/7/3 169/7/3
f 172/7/3 170/7/3 171/7/3
f 175/7/3 174/7/3 173/7/3
f 176/7/3 174/7/3 175/7/3
f 179/6/3 178/6/3 177/6/3
f 180/6/3 178/6/3 179/6/3
f 181/6/3 178/6/3 180/6/3
f 182/7/3 181/7/3 180/7/3
f 183/7/3 181/7/3 182/7/3
f 184/7/4 185/7/4 186/7/4
f 186/7/4 185/7/4 187/7/4
f 186/6/4 187/6/4 188/6/4
f 188/6/4 187/6/4 189/6/4
f 189/6/4 187/6/4 190/6/4
f 191/7/4 192/7/4 193/7/4
f 193/7/4 192/7/4 194/7/4
f 195/7/4 196/7/4 197/7/4
f 197/7/4 196/7/4 198/7/4
f 199/6/4 200/6/4 201/6/4
f 199/6/4 201/6/4 202/6/4
f 202/6/4 201/6/4 203/6/4
f 202/5/4 203/5/4 204/5/4
f 204/5/4 203/5/4 205/5/4
f 204/4/4 205/4/4 207/4/4
f 207/4/4 205/4/4 208/4/4
f 206/3/4 207/3/4 209/3/4
f 206/3/4 209/3/4 210/3/4
f 210/3/4 209/3/4 211/3/4
f 211/5/4 212/5/4 213/5/4
f 213/5/4 212/5/4 214/5/4
f 213/6/4 214/6/4 215/6/4
f 213/6/4 215/6/4 216/6/4
f 216/6/4 215/6/4 217/6/4
f 216/5/4 217/5/4 218/5/4
f 218/5/4 217/5/4 219/5/4
f 220/5/4 221/5/4 222/5/4
f 222/5/4 221/5/4 223/5/4
f 224/5/4 225/5/4 226/5/4
f 226/5/4 225/5/4 227/5/4
f 228/5/4 229/5/4 230/5/4
f 230/5/4 229/5/4 231/5/4
f 232/5/4 233/5/4 234/5/4
f 234/5/4 233/5/4 235/5/4
f 236/5/4 237/5/4 239/5/4
f 239/5/4 237/5/4 240/5/4
f 238/6/4 239/6/4 241/6/4
f 239/4/4 240/4/4 242/4/4
f 241/6/4 239/6/4 242/6/4
f 242/4/4 240/4/4 243/4/4
f 242/5/4 243/5/4 244/5/4
f 244/5/4 243/5/4 245/5/4
f 248/3/5 247/3/5 246/3/5
f 249/3/5 247/3/5 248/3/5
f 252/6/5 251/6/5 250/6/5
f 253/6/5 251/6/5 252/6/5
f 254/5/5 253/5/5 252/5/5
f 255/5/5 253/5/5 254/5/5
f 258/5/5 254/5/5 252/5/5
f 259/4/5 255/4/5 254/4/5
f 259/5/5 254/5/5 258/5/5
f 260/4/5 255/4/5 259/4/5
f 264/5/5 258/5/5 257/5/5
f 265/5/5 258/5/5 264/5/5
f 266/4/5 261/4/5 260/4/5
f 267/6/5 262/6/5 261/6/5
f 267/4/5 261/4/5 266/4/5
f 268/6/5 257/6/5 256/6/5
f 269/5/5 264/5/5 257/5/5
f 269/6/5 257/6/5 268/6/5
f 270/4/5 265/4/5 264/4/5
f 270/5/5 264/5/5 269/5/5
f 271/4/5 265/4/5 270/4/5
f 273/5/5 267/5/5 266/5/5
f 274/6/5 262/6/5 267/6/5
f 274/5/5 267/5/5 273/5/5
f 275/5/5 263/5/5 262/5/5
f 275/6/5 262/6/5 274/6/5
f 276/5/5 263/5/5 275/5/5
f 277/4/5 272/4/5 271/4/5
f 278/5/5 273/5/5 272/5/5
f 278/4/5 272/4/5 277/4/5
f 279/5/5 278/5/5 277/5/5
f 280/5/5 273/5/5 278/5/5
f 280/5/5 278/5/5 279/5/5
f 281/6/5 280/6/5 279/6/5
f 281/5/5 273/5/5 280/5/5
f 282/5/5 273/5/5 281/5/5
f 283/6/5 281/6/5 279/6/5
f 283/6/5 282/6/5 281/6/5
f 284/6/5 282/6/5 283/6/5
f 290/5/5 286/5/5 285/5/5
f 291/5/5 286/5/5 290/5/5
f 292/5/5 288/5/5 287/5/5
f 293/5/5 288/5/5 292/5/5
f 295/5/5 290/5/5 289/5/5
f 296/7/5 291/7/5 290/7/5
f 296/5/5 290/5/5 295/5/5
f 297/7/5 291/7/5 296/7/5
f 298/6/5 293/6/5 292/6/5
f 299/5/5 294/5/5 293/5/5
f 299/6/5 293/6/5 298/6/5
f 300/5/5 294/5/5 299/5/5
f 301/5/5 294/5/5 300/5/5
f 303/5/5 295/5/5 289/5/5
f 304/7/5 296/7/5 295/7/5
f 304/5/5 295/5/5 303/5/5
f 305/7/5 296/7/5 304/7/5
f 306/7/5 300/7/5 299/7/5
f 307/6/5 301/6/5 300/6/5
f 307/7/5 300/7/5 306/7/5
f 308/6/5 301/6/5 307/6/5
f 310/5/5 303/5/5 302/5/5
f 311/6/5 304/6/5 303/6/5
f 311/5/5 303/5/5 310/5/5
f 312/6/5 304/6/5 311/6/5
f 313/6/5 308/6/5 307/6/5
f 314/5/5 309/5/5 308/5/5
f 314/6/5 308/6/5 313/6/5
f 315/5/5 309/5/5 314/5/5
f 322/5/5 317/5/5 316/5/5
f 323/7/5 318/7/5 317/7/5
f 323/5/5 317/5/5 322/5/5
f 324/7/5 318/7/5 323/7/5
f 327/6/5 320/6/5 319/6/5
f 328/5/5 321/5/5 320/5/5
f 328/6/5 320/6/5 327/6/5
f 329/5/5 321/5/5 328/5/5
f 330/7/5 325/7/5 324/7/5
f 330/5/5 324/5/5 323/5/5
f 331/7/5 325/7/5 330/7/5
f 334/7/5 327/7/5 326/7/5
f 335/6/5 328/6/5 327/6/5
f 335/7/5 327/7/5 334/7/5
f 336/6/5 328/6/5 335/6/5
f 337/5/5 330/5/5 323/5/5
f 337/5/5 331/5/5 330/5/5
f 338/6/5 332/6/5 331/6/5
f 338/5/5 331/5/5 337/5/5
f 339/6/5 332/6/5 338/6/5
f 340/7/5 334/7/5 333/7/5
f 341/5/5 336/5/5 335/5/5
f 341/7/5 334/7/5 340/7/5
f 341/5/5 335/5/5 334/5/5
f 342/5/5 336/5/5 341/5/5
f 343/5/5 339/5/5 338/5/5
f 344/5/5 339/5/5 343/5/5
f 345/5/5 341/5/5 340/5/5
f 346/5/5 341/5/5 345/5/5
f 347/5/6 348/5/6 349/5/6
f 349/5/6 348/5/6 350/5/6
f 347/5/6 349/5/6 352/5/6
f 349/4/6 350/4/6 353/4/6
f 352/5/6 349/5/6 353/5/6
f 353/4/6 350/4/6 354/4/6
f 351/5/6 352/5/6 357/5/6
f 352/1/6 353/1/6 358/1/6
f 357/5/6 352/5/6 358/5/6
f 353/2/6 354/2/6 359/2/6
f 358/1/6 353/1/6 359/1/6
f 354/4/6 355/4/6 360/4/6
f 359/2/6 354/2/6 360/2/6
f 355/6/6 356/6/6 361/6/6
f 360/4/6 355/4/6 361/4/6
f 351/5/6 357/5/6 362/5/6
f 357/4/6 358/4/6 363/4/6
f 362/5/6 357/5/6 363/5/6
f 358/2/6 359/2/6 364/2/6
f 363/4/6 358/4/6 364/4/6
f 359/1/6 360/1/6 365/1/6
f 364/2/6 359/2/6 365/2/6
f 360/5/6 361/5/6 366/5/6
f 365/1/6 360/1/6 366/1/6
f 361/6/6 356/6/6 367/6/6
f 366/5/6 361/5/6 367/5/6
f 367/6/6 356/6/6 368/6/6
f 364/4/6 365/4/6 369/4/6
f 365/5/6 366/5/6 370/5/6
f 369/4/6 365/4/6 370/4/6
f 369/5/6 370/5/6 371/5/6
f 370/5/6 366/5/6 372/5/6
f 371/5/6 370/5/6 372/5/6
f 373/5/6 374/5/6 378/5/6
f 374/4/6 375/4/6 379/4/6
f 378/5/6 374/5/6 379/5/6
f 375/5/6 376/5/6 380/5/6
f 379/4/6 375/4/6 380/4/6
f 380/5/6 376/5/6 381/5/6
f 377/5/6 378/5/6 383/5/6
f 378/7/6 379/7/6 384/7/6
f 383/5/6 378/5/6 384/5/6
f 379/6/6 380/6/6 385/6/6
f 384/7/6 379/7/6 385/7/6
f 380/6/6 381/6/6 385/6/6
f 381/5/6 382/5/6 386/5/6
f 385/6/6 381/6/6 386/6/6
f 386/5/6 382/5/6 387/5/6
f 387/5/6 382/5/6 388/5/6
f 377/5/6 383/5/6 390/5/6
f 383/7/6 384/7/6 391/7/6
f 390/5/6 383/5/6 391/5/6
f 391/7/6 384/7/6 392/7/6
f 386/7/6 387/7/6 393/7/6
f 387/6/6 388/6/6 394/6/6
f 393/7/6 387/7/6 394/7/6
f 394/6/6 388/6/6 395/6/6
f 389/5/6 390/5/6 397/5/6
f 390/6/6 391/6/6 398/6/6
f 397/5/6 390/5/6 398/5/6
f 395/5/6 396/5/6 399/5/6
f 394/6/6 395/6/6 399/6/6
f 399/5/6 396/5/6 400/5/6
f 397/4/6 398/4/6 401/4/6
f 398/6/6 391/6/6 402/6/6
f 401/4/6 398/4/6 402/4/6
f 402/6/6 391/6/6 403/6/6
f 394/6/6 399/6/6 404/6/6
f 399/4/6 400/4/6 404/4/6
f 404/4/6 400/4/6 405/4/6
f 401/5/6 402/5/6 406/5/6
f 402/7/6 403/7/6 407/7/6
f 406/5/6 402/5/6 407/5/6
f 407/7/6 403/7/6 408/7/6
f 394/6/6 404/6/6 411/6/6
f 404/5/6 405/5/6 412/5/6
f 411/6/6 404/6/6 412/6/6
f 412/5/6 405/5/6 413/5/6
f 408/7/6 409/7/6 414/7/6
f 407/5/6 408/5/6 414/5/6
f 414/7/6 409/7/6 415/7/6
f 410/7/6 411/7/6 417/7/6
f 411/6/6 412/6/6 418/6/6
f 417/7/6 411/7/6 418/7/6
f 418/6/6 412/6/6 419/6/6
f 407/5/6 414/5/6 420/5/6
f 414/5/6 415/5/6 420/5/6
f 415/6/6 416/6/6 421/6/6
f 420/5/6 415/5/6 421/5/6
f 421/6/6 416/6/6 422/6/6
f 416/7/6 417/7/6 423/7/6
f 422/6/6 416/6/6 423/6/6
f 418/5/6 419/5/6 424/5/6
f 423/7/6 417/7/6 424/7/6
f 417/5/6 418/5/6 424/5/6
f 424/5/6 419/5/6 425/5/6
f 421/5/6 422/5/6 426/5/6
f 422/4/6 423/4/6 427/4/6
f 426/5/6 422/5/6 427/5/6
f 423/5/6 424/5/6 428/5/6
f 427/4/6 423/4/6 428/4/6
f 428/5/6 424/5/6 429/5/6
