# MagicaVoxel @ Ephtracy

# group
o 

# material
mtllib lever_arm-0.mtl
usemtl palette

# normals
vn -1 0 0
vn 1 0 0
vn 0 0 1
vn 0 0 -1
vn 0 -1 0
vn 0 1 0

# texcoords
vt 0.970703 0.5
vt 0.974609 0.5
vt 0.978516 0.5
vt 0.982422 0.5
vt 0.986328 0.5

# verts
v -0.1 0 0.1
v -0.1 0 -0.1
v -0.1 0.1 0.1
v -0.1 0.1 -1.49012e-08
v -0.1 0.2 -1.49012e-08
v -0.1 0.2 -0.1
v -0.1 0.4 -1.49012e-08
v -0.1 0.4 -0.1
v -0.1 0.5 0.1
v -0.1 0.5 -1.49012e-08
v -0.1 0.5 -0.1
v -0.1 0.6 0.1
v -0.1 0.6 -1.49012e-08
v -0.1 0.6 -0.1
v -0.1 0.7 0.1
v -0.1 0.7 -1.49012e-08
v -0.1 0.7 -0.1
v 0.1 0 0.1
v 0.1 0 -0.1
v 0.1 0.1 -1.49012e-08
v 0.1 0.1 -0.1
v 0.1 0.3 0.1
v 0.1 0.3 -1.49012e-08
v 0.1 0.3 -0.1
v 0.1 0.5 0.1
v 0.1 0.5 -1.49012e-08
v 0.1 0.5 -0.1
v 0.1 0.6 0.1
v 0.1 0.6 -1.49012e-08
v 0.1 0.6 -0.1
v 0.1 0.7 0.1
v 0.1 0.7 -1.49012e-08
v 0.1 0.7 -0.1
v -0.1 0 0.1
v -0.1 0.1 0.1
v -0.1 0.5 0.1
v -0.1 0.6 0.1
v -0.1 0.7 0.1
v 1.49012e-08 0.1 0.1
v 1.49012e-08 0.3 0.1
v 0.1 0 0.1
v 0.1 0.3 0.1
v 0.1 0.5 0.1
v 0.1 0.6 0.1
v 0.1 0.7 0.1
v -0.1 0 -0.1
v -0.1 0.2 -0.1
v -0.1 0.4 -0.1
v -0.1 0.5 -0.1
v -0.1 0.6 -0.1
v -0.1 0.7 -0.1
v 1.49012e-08 0.1 -0.1
v 1.49012e-08 0.2 -0.1
v 1.49012e-08 0.3 -0.1
v 1.49012e-08 0.4 -0.1
v 0.1 0 -0.1
v 0.1 0.1 -0.1
v 0.1 0.3 -0.1
v 0.1 0.5 -0.1
v 0.1 0.6 -0.1
v 0.1 0.7 -0.1
v -0.1 0 0.1
v 0.1 0 0.1
v -0.1 0 -0.1
v 0.1 0 -0.1
v -0.1 0.7 0.1
v 0.1 0.7 0.1
v -0.1 0.7 -1.49012e-08
v 0.1 0.7 -1.49012e-08
v -0.1 0.7 -0.1
v 0.1 0.7 -0.1

# faces
f 3/1/1 2/1/1 1/1/1
f 4/1/1 2/1/1 3/1/1
f 5/2/1 4/2/1 3/2/1
f 5/1/1 2/1/1 4/1/1
f 6/1/1 2/1/1 5/1/1
f 7/2/1 5/2/1 3/2/1
f 7/2/1 6/2/1 5/2/1
f 8/2/1 6/2/1 7/2/1
f 9/2/1 7/2/1 3/2/1
f 10/3/1 8/3/1 7/3/1
f 10/2/1 7/2/1 9/2/1
f 11/3/1 8/3/1 10/3/1
f 12/3/1 10/3/1 9/3/1
f 13/4/1 11/4/1 10/4/1
f 13/3/1 10/3/1 12/3/1
f 14/4/1 11/4/1 13/4/1
f 15/4/1 13/4/1 12/4/1
f 16/5/1 14/5/1 13/5/1
f 16/4/1 13/4/1 15/4/1
f 17/5/1 14/5/1 16/5/1
f 18/1/2 19/1/2 20/1/2
f 20/1/2 19/1/2 21/1/2
f 18/1/2 20/1/2 22/1/2
f 20/2/2 21/2/2 23/2/2
f 22/1/2 20/1/2 23/1/2
f 23/2/2 21/2/2 24/2/2
f 22/2/2 23/2/2 25/2/2
f 23/3/2 24/3/2 26/3/2
f 25/2/2 23/2/2 26/2/2
f 26/3/2 24/3/2 27/3/2
f 25/3/2 26/3/2 28/3/2
f 26/4/2 27/4/2 29/4/2
f 28/3/2 26/3/2 29/3/2
f 29/4/2 27/4/2 30/4/2
f 28/4/2 29/4/2 31/4/2
f 29/5/2 30/5/2 32/5/2
f 31/4/2 29/4/2 32/4/2
f 32/5/2 30/5/2 33/5/2
f 39/1/3 35/1/3 34/1/3
f 39/2/3 36/2/3 35/2/3
f 40/2/3 36/2/3 39/2/3
f 41/1/3 39/1/3 34/1/3
f 41/1/3 40/1/3 39/1/3
f 42/2/3 36/2/3 40/2/3
f 42/1/3 40/1/3 41/1/3
f 43/3/3 37/3/3 36/3/3
f 43/2/3 36/2/3 42/2/3
f 44/4/3 38/4/3 37/4/3
f 44/3/3 37/3/3 43/3/3
f 45/4/3 38/4/3 44/4/3
f 46/1/4 47/1/4 52/1/4
f 47/2/4 48/2/4 53/2/4
f 52/1/4 47/1/4 53/1/4
f 53/2/4 48/2/4 54/2/4
f 48/3/4 49/3/4 55/3/4
f 54/2/4 48/2/4 55/2/4
f 46/1/4 52/1/4 56/1/4
f 53/2/4 54/2/4 57/2/4
f 56/1/4 52/1/4 57/1/4
f 52/2/4 53/2/4 57/2/4
f 54/3/4 55/3/4 58/3/4
f 57/2/4 54/2/4 58/2/4
f 55/3/4 49/3/4 59/3/4
f 58/3/4 55/3/4 59/3/4
f 49/4/4 50/4/4 59/4/4
f 50/5/4 51/5/4 60/5/4
f 59/4/4 50/4/4 60/4/4
f 60/5/4 51/5/4 61/5/4
f 64/1/5 63/1/5 62/1/5
f 65/1/5 63/1/5 64/1/5
f 66/4/6 67/4/6 68/4/6
f 68/4/6 67/4/6 69/4/6
f 68/5/6 69/5/6 70/5/6
f 70/5/6 69/5/6 71/5/6
