# MagicaVoxel @ Ephtracy

# group
o 

# material
mtllib lever_arm-1.mtl
usemtl palette

# normals
vn -1 0 0
vn 1 0 0
vn 0 0 1
vn 0 0 -1
vn 0 -1 0
vn 0 1 0

# texcoords
vt 0.939453 0.5
vt 0.943359 0.5
vt 0.947266 0.5
vt 0.970703 0.5
vt 0.974609 0.5
vt 0.978516 0.5
vt 0.990234 0.5

# verts
v -0.5 0 0.5
v -0.5 0 -0.5
v -0.5 0.1 0.5
v -0.5 0.1 -0.5
v -0.2 0.1 0.3
v -0.2 0.1 0.1
v -0.2 0.1 -0.1
v -0.2 0.1 -0.3
v -0.2 0.2 0.3
v -0.2 0.2 0.1
v -0.2 0.2 -0.1
v -0.2 0.2 -0.3
v 0.1 0.1 0.2
v 0.1 0.1 0.1
v 0.1 0.1 -0.1
v 0.1 0.1 -0.2
v 0.1 0.2 0.2
v 0.1 0.2 0.1
v 0.1 0.2 -0.1
v 0.1 0.2 -0.2
v -0.1 0.1 0.2
v -0.1 0.1 0.1
v -0.1 0.1 -0.1
v -0.1 0.1 -0.2
v -0.1 0.2 0.2
v -0.1 0.2 0.1
v -0.1 0.2 -0.1
v -0.1 0.2 -0.2
v 0.2 0.1 0.3
v 0.2 0.1 0.1
v 0.2 0.1 -0.1
v 0.2 0.1 -0.3
v 0.2 0.2 0.3
v 0.2 0.2 0.1
v 0.2 0.2 -0.1
v 0.2 0.2 -0.3
v 0.5 0 0.5
v 0.5 0 -0.5
v 0.5 0.1 0.5
v 0.5 0.1 -0.5
v -0.5 0 0.5
v -0.5 0.1 0.5
v 0.5 0 0.5
v 0.5 0.1 0.5
v -0.2 0.1 0.3
v -0.2 0.2 0.3
v 0.2 0.1 0.3
v 0.2 0.2 0.3
v -0.1 0.1 -0.2
v -0.1 0.2 -0.2
v 0.1 0.1 -0.2
v 0.1 0.2 -0.2
v -0.1 0.1 0.2
v -0.1 0.2 0.2
v 0.1 0.1 0.2
v 0.1 0.2 0.2
v -0.2 0.1 -0.3
v -0.2 0.2 -0.3
v 0.2 0.1 -0.3
v 0.2 0.2 -0.3
v -0.5 0 -0.5
v -0.5 0.1 -0.5
v 0.5 0 -0.5
v 0.5 0.1 -0.5
v -0.5 0 0.5
v 0.5 0 0.5
v -0.4 0 0.4
v -0.3 0 0.4
v -0.2 0 0.4
v 0.2 0 0.4
v 0.3 0 0.4
v 0.4 0 0.4
v -0.4 0 0.3
v -0.3 0 0.3
v -0.2 0 0.3
v 0.2 0 0.3
v 0.3 0 0.3
v 0.4 0 0.3
v -0.4 0 0.2
v -0.3 0 0.2
v 0.3 0 0.2
v 0.4 0 0.2
v -0.4 0 -0.2
v -0.3 0 -0.2
v 0.3 0 -0.2
v 0.4 0 -0.2
v -0.4 0 -0.3
v -0.3 0 -0.3
v -0.2 0 -0.3
v 0.2 0 -0.3
v 0.3 0 -0.3
v 0.4 0 -0.3
v -0.4 0 -0.4
v -0.3 0 -0.4
v -0.2 0 -0.4
v 0.2 0 -0.4
v 0.3 0 -0.4
v 0.4 0 -0.4
v -0.5 0 -0.5
v 0.5 0 -0.5
v -0.5 0.1 0.5
v 0.5 0.1 0.5
v -0.4 0.1 0.4
v -0.3 0.1 0.4
v -0.2 0.1 0.4
v 0.2 0.1 0.4
v 0.3 0.1 0.4
v 0.4 0.1 0.4
v -0.4 0.1 0.3
v -0.3 0.1 0.3
v -0.2 0.1 0.3
v 0.2 0.1 0.3
v 0.3 0.1 0.3
v 0.4 0.1 0.3
v -0.4 0.1 0.2
v -0.3 0.1 0.2
v -0.1 0.1 0.2
v 0.1 0.1 0.2
v 0.3 0.1 0.2
v 0.4 0.1 0.2
v -0.2 0.1 0.1
v -0.1 0.1 0.1
v 0.1 0.1 0.1
v 0.2 0.1 0.1
v -0.2 0.1 -0.1
v -0.1 0.1 -0.1
v 0.1 0.1 -0.1
v 0.2 0.1 -0.1
v -0.4 0.1 -0.2
v -0.3 0.1 -0.2
v -0.1 0.1 -0.2
v 0.1 0.1 -0.2
v 0.3 0.1 -0.2
v 0.4 0.1 -0.2
v -0.4 0.1 -0.3
v -0.3 0.1 -0.3
v -0.2 0.1 -0.3
v 0.2 0.1 -0.3
v 0.3 0.1 -0.3
v 0.4 0.1 -0.3
v -0.4 0.1 -0.4
v -0.3 0.1 -0.4
v -0.2 0.1 -0.4
v 0.2 0.1 -0.4
v 0.3 0.1 -0.4
v 0.4 0.1 -0.4
v -0.5 0.1 -0.5
v 0.5 0.1 -0.5
v -0.2 0.2 0.3
v 0.2 0.2 0.3
v -0.1 0.2 0.2
v 0.1 0.2 0.2
v -0.2 0.2 0.1
v -0.1 0.2 0.1
v 0.1 0.2 0.1
v 0.2 0.2 0.1
v -0.2 0.2 -0.1
v -0.1 0.2 -0.1
v 0.1 0.2 -0.1
v 0.2 0.2 -0.1
v -0.1 0.2 -0.2
v 0.1 0.2 -0.2
v -0.2 0.2 -0.3
v 0.2 0.2 -0.3

# faces
f 3/5/1 2/5/1 1/5/1
f 4/5/1 2/5/1 3/5/1
f 9/6/1 6/6/1 5/6/1
f 10/4/1 7/4/1 6/4/1
f 10/6/1 6/6/1 9/6/1
f 11/1/1 8/1/1 7/1/1
f 11/4/1 7/4/1 10/4/1
f 12/1/1 8/1/1 11/1/1
f 17/6/1 14/6/1 13/6/1
f 18/4/1 15/4/1 14/4/1
f 18/6/1 14/6/1 17/6/1
f 19/1/1 16/1/1 15/1/1
f 19/4/1 15/4/1 18/4/1
f 20/1/1 16/1/1 19/1/1
f 21/6/2 22/6/2 25/6/2
f 22/4/2 23/4/2 26/4/2
f 25/6/2 22/6/2 26/6/2
f 23/1/2 24/1/2 27/1/2
f 26/4/2 23/4/2 27/4/2
f 27/1/2 24/1/2 28/1/2
f 29/6/2 30/6/2 33/6/2
f 30/4/2 31/4/2 34/4/2
f 33/6/2 30/6/2 34/6/2
f 31/1/2 32/1/2 35/1/2
f 34/4/2 31/4/2 35/4/2
f 35/1/2 32/1/2 36/1/2
f 37/5/2 38/5/2 39/5/2
f 39/5/2 38/5/2 40/5/2
f 43/5/3 42/5/3 41/5/3
f 44/5/3 42/5/3 43/5/3
f 47/6/3 46/6/3 45/6/3
f 48/6/3 46/6/3 47/6/3
f 51/1/3 50/1/3 49/1/3
f 52/1/3 50/1/3 51/1/3
f 53/6/4 54/6/4 55/6/4
f 55/6/4 54/6/4 56/6/4
f 57/1/4 58/1/4 59/1/4
f 59/1/4 58/1/4 60/1/4
f 61/5/4 62/5/4 63/5/4
f 63/5/4 62/5/4 64/5/4
f 67/5/5 66/5/5 65/5/5
f 68/5/5 66/5/5 67/5/5
f 69/5/5 66/5/5 68/5/5
f 70/5/5 66/5/5 69/5/5
f 71/5/5 66/5/5 70/5/5
f 72/5/5 66/5/5 71/5/5
f 73/5/5 67/5/5 65/5/5
f 73/3/5 68/3/5 67/3/5
f 74/2/5 69/2/5 68/2/5
f 74/3/5 68/3/5 73/3/5
f 75/5/5 70/5/5 69/5/5
f 75/2/5 69/2/5 74/2/5
f 76/2/5 71/2/5 70/2/5
f 76/5/5 70/5/5 75/5/5
f 77/3/5 72/3/5 71/3/5
f 77/2/5 71/2/5 76/2/5
f 78/5/5 66/5/5 72/5/5
f 78/3/5 72/3/5 77/3/5
f 79/5/5 73/5/5 65/5/5
f 79/2/5 74/2/5 73/2/5
f 80/5/5 75/5/5 74/5/5
f 80/2/5 74/2/5 79/2/5
f 81/5/5 77/5/5 76/5/5
f 81/2/5 78/2/5 77/2/5
f 82/5/5 66/5/5 78/5/5
f 82/2/5 78/2/5 81/2/5
f 83/5/5 80/5/5 79/5/5
f 83/5/5 79/5/5 65/5/5
f 84/5/5 75/5/5 80/5/5
f 84/5/5 80/5/5 83/5/5
f 85/5/5 81/5/5 76/5/5
f 85/5/5 82/5/5 81/5/5
f 86/5/5 66/5/5 82/5/5
f 86/5/5 82/5/5 85/5/5
f 87/5/5 83/5/5 65/5/5
f 87/2/5 84/2/5 83/2/5
f 88/5/5 75/5/5 84/5/5
f 88/2/5 84/2/5 87/2/5
f 89/7/5 76/7/5 75/7/5
f 89/5/5 75/5/5 88/5/5
f 90/5/5 85/5/5 76/5/5
f 90/7/5 76/7/5 89/7/5
f 91/2/5 86/2/5 85/2/5
f 91/5/5 85/5/5 90/5/5
f 92/5/5 66/5/5 86/5/5
f 92/2/5 86/2/5 91/2/5
f 93/3/5 88/3/5 87/3/5
f 93/5/5 87/5/5 65/5/5
f 94/2/5 89/2/5 88/2/5
f 94/3/5 88/3/5 93/3/5
f 95/5/5 90/5/5 89/5/5
f 95/2/5 89/2/5 94/2/5
f 96/2/5 91/2/5 90/2/5
f 96/5/5 90/5/5 95/5/5
f 97/3/5 92/3/5 91/3/5
f 97/2/5 91/2/5 96/2/5
f 98/5/5 66/5/5 92/5/5
f 98/3/5 92/3/5 97/3/5
f 99/5/5 95/5/5 94/5/5
f 99/5/5 97/5/5 96/5/5
f 99/5/5 98/5/5 97/5/5
f 99/5/5 94/5/5 93/5/5
f 99/5/5 93/5/5 65/5/5
f 99/5/5 96/5/5 95/5/5
f 100/5/5 66/5/5 98/5/5
f 100/5/5 98/5/5 99/5/5
f 101/5/6 102/5/6 103/5/6
f 103/5/6 102/5/6 104/5/6
f 104/5/6 102/5/6 105/5/6
f 105/5/6 102/5/6 106/5/6
f 106/5/6 102/5/6 107/5/6
f 107/5/6 102/5/6 108/5/6
f 101/5/6 103/5/6 109/5/6
f 103/3/6 104/3/6 109/3/6
f 104/2/6 105/2/6 110/2/6
f 109/3/6 104/3/6 110/3/6
f 105/5/6 106/5/6 111/5/6
f 110/2/6 105/2/6 111/2/6
f 106/2/6 107/2/6 112/2/6
f 111/5/6 106/5/6 112/5/6
f 107/3/6 108/3/6 113/3/6
f 112/2/6 107/2/6 113/2/6
f 108/5/6 102/5/6 114/5/6
f 113/3/6 108/3/6 114/3/6
f 101/5/6 109/5/6 115/5/6
f 109/2/6 110/2/6 115/2/6
f 110/5/6 111/5/6 116/5/6
f 115/2/6 110/2/6 116/2/6
f 112/5/6 113/5/6 119/5/6
f 113/2/6 114/2/6 119/2/6
f 114/5/6 102/5/6 120/5/6
f 119/2/6 114/2/6 120/2/6
f 116/5/6 111/5/6 121/5/6
f 115/5/6 116/5/6 121/5/6
f 117/7/6 118/7/6 122/7/6
f 122/7/6 118/7/6 123/7/6
f 112/5/6 119/5/6 124/5/6
f 119/5/6 120/5/6 124/5/6
f 115/5/6 121/5/6 125/5/6
f 122/7/6 123/7/6 126/7/6
f 126/7/6 123/7/6 127/7/6
f 124/5/6 120/5/6 128/5/6
f 115/5/6 125/5/6 129/5/6
f 101/5/6 115/5/6 129/5/6
f 129/5/6 125/5/6 130/5/6
f 126/7/6 127/7/6 131/7/6
f 131/7/6 127/7/6 132/7/6
f 128/5/6 120/5/6 133/5/6
f 120/5/6 102/5/6 134/5/6
f 133/5/6 120/5/6 134/5/6
f 101/5/6 129/5/6 135/5/6
f 129/2/6 130/2/6 135/2/6
f 130/5/6 125/5/6 136/5/6
f 135/2/6 130/2/6 136/2/6
f 136/5/6 125/5/6 137/5/6
f 128/5/6 133/5/6 138/5/6
f 133/2/6 134/2/6 139/2/6
f 138/5/6 133/5/6 139/5/6
f 134/5/6 102/5/6 140/5/6
f 139/2/6 134/2/6 140/2/6
f 101/5/6 135/5/6 141/5/6
f 135/3/6 136/3/6 141/3/6
f 136/2/6 137/2/6 142/2/6
f 141/3/6 136/3/6 142/3/6
f 137/5/6 138/5/6 143/5/6
f 142/2/6 137/2/6 143/2/6
f 138/2/6 139/2/6 144/2/6
f 143/5/6 138/5/6 144/5/6
f 139/3/6 140/3/6 145/3/6
f 144/2/6 139/2/6 145/2/6
f 140/5/6 102/5/6 146/5/6
f 145/3/6 140/3/6 146/3/6
f 144/5/6 145/5/6 147/5/6
f 142/5/6 143/5/6 147/5/6
f 145/5/6 146/5/6 147/5/6
f 101/5/6 141/5/6 147/5/6
f 143/5/6 144/5/6 147/5/6
f 141/5/6 142/5/6 147/5/6
f 146/5/6 102/5/6 148/5/6
f 147/5/6 146/5/6 148/5/6
f 149/6/6 150/6/6 151/6/6
f 151/6/6 150/6/6 152/6/6
f 149/6/6 151/6/6 153/6/6
f 153/6/6 151/6/6 154/6/6
f 152/6/6 150/6/6 155/6/6
f 155/6/6 150/6/6 156/6/6
f 153/4/6 154/4/6 157/4/6
f 157/4/6 154/4/6 158/4/6
f 155/4/6 156/4/6 159/4/6
f 159/4/6 156/4/6 160/4/6
f 157/1/6 158/1/6 161/1/6
f 159/1/6 160/1/6 162/1/6
f 157/1/6 161/1/6 163/1/6
f 161/1/6 162/1/6 163/1/6
f 162/1/6 160/1/6 164/1/6
f 163/1/6 162/1/6 164/1/6
