# MagicaVoxel @ Ephtracy

# group
o 

# material
mtllib Bush-1.mtl
usemtl palette

# normals
vn -1 0 0
vn 1 0 0
vn 0 0 1
vn 0 0 -1
vn 0 -1 0
vn 0 1 0

# texcoords
vt 0.939453 0.5
vt 0.943359 0.5
vt 0.947266 0.5
vt 0.970703 0.5
vt 0.982422 0.5
vt 0.986328 0.5

# verts
v -0.4 0.3 0.2
v -0.4 0.3 0
v -0.4 0.4 0.3
v -0.4 0.4 0.2
v -0.4 0.4 0
v -0.4 0.4 -0.1
v -0.4 0.5 0.3
v -0.4 0.5 0.2
v -0.4 0.5 0
v -0.4 0.5 -0.1
v -0.4 0.6 0.2
v -0.4 0.6 0.1
v -0.4 0.6 0
v -0.4 0.7 0.3
v -0.4 0.7 0.1
v -0.3 0.4 0.4
v -0.3 0.4 0.3
v -0.3 0.4 -0.1
v -0.3 0.4 -0.2
v -0.3 0.5 0.4
v -0.3 0.5 0.3
v -0.3 0.5 -0.1
v -0.3 0.5 -0.2
v -0.3 0.5 -0.3
v -0.3 0.6 0.4
v -0.3 0.6 0.3
v -0.3 0.6 0.1
v -0.3 0.6 0
v -0.3 0.6 -0.1
v -0.3 0.6 -0.2
v -0.3 0.7 0.3
v -0.3 0.7 0.1
v -0.3 0.7 0
v -0.3 0.7 -0.1
v -0.3 0.7 -0.3
v -0.3 0.8 0.3
v -0.3 0.8 0.1
v -0.2 0.2 0.1
v -0.2 0.2 0
v -0.2 0.3 0.1
v -0.2 0.3 0
v -0.2 0.5 0
v -0.2 0.5 -0.1
v -0.2 0.5 -0.3
v -0.2 0.5 -0.4
v -0.2 0.6 0
v -0.2 0.6 -0.1
v -0.2 0.7 0
v -0.2 0.7 -0.1
v -0.2 0.7 -0.3
v -0.2 0.7 -0.4
v -0.2 0.8 -0.1
v -0.2 0.8 -0.3
v -0.1 0 0
v -0.1 0 -0.1
v -0.1 0.2 0.2
v -0.1 0.2 0.1
v -0.1 0.2 0
v -0.1 0.2 -0.1
v -0.1 0.3 0.2
v -0.1 0.3 0.1
v -0.1 0.3 0
v -0.1 0.3 -0.1
v -0.1 0.3 -0.2
v -0.1 0.4 0
v -0.1 0.4 -0.1
v -0.1 0.4 -0.2
v -0.1 0.4 -0.3
v -0.1 0.5 0
v -0.1 0.5 -0.1
v -0.1 0.5 -0.2
v -0.1 0.5 -0.3
v 0.1 0.3 0.2
v 0.1 0.3 0.1
v 0.1 0.4 0.3
v 0.1 0.4 0.2
v 0.1 0.4 0.1
v 0.1 0.5 0.3
v 0.1 0.5 0.2
v 0.1 0.5 0.1
v 0.1 0.6 0.3
v 0.1 0.6 0.2
v 0.1 0.6 0.1
v 0.1 0.6 -0.1
v 0.1 0.7 0.2
v 0.1 0.7 -0.1
v 0.1 0.8 0.2
v 0.1 0.8 -0.1
v 0.2 0.6 0.3
v 0.2 0.6 0.2
v 0.2 0.7 0.3
v 0.2 0.7 0.2
v -0.2 0.4 0
v -0.2 0.4 -0.1
v -0.2 0.5 0
v -0.2 0.5 -0.1
v -0.1 0.4 0.4
v -0.1 0.4 0.3
v -0.1 0.4 0.2
v -0.1 0.5 0.4
v -0.1 0.5 0.3
v -0.1 0.5 0.2
v -0.1 0.6 0.4
v -0.1 0.6 0.3
v -0.1 0.6 0.2
v -0.1 0.6 0.1
v -0.1 0.6 0
v -0.1 0.7 0.2
v -0.1 0.7 0.1
v -0.1 0.7 0
v -0.1 0.8 0.3
v -0.1 0.8 0.1
v 0 0 0
v 0 0 -0.1
v 0 0.2 0.2
v 0 0.2 0.1
v 0 0.2 0
v 0 0.2 -0.1
v 0 0.3 0.1
v 0 0.3 0
v 0 0.3 -0.1
v 0 0.4 0.1
v 0 0.5 0.2
v 0 0.5 0.1
v 0 0.5 -0.3
v 0 0.5 -0.4
v 0 0.6 0.2
v 0 0.6 0.1
v 0 0.6 0
v 0 0.6 -0.1
v 0 0.6 -0.3
v 0 0.6 -0.4
v 0 0.7 0
v 0 0.7 -0.1
v 0 0.7 -0.2
v 0 0.7 -0.3
v 0 0.7 -0.4
v 0 0.8 -0.1
v 0 0.8 -0.3
v 0.1 0.3 0
v 0.1 0.3 -0.1
v 0.1 0.3 -0.2
v 0.1 0.4 0
v 0.1 0.4 -0.1
v 0.1 0.4 -0.2
v 0.1 0.4 -0.3
v 0.1 0.5 -0.1
v 0.1 0.5 -0.2
v 0.1 0.5 -0.3
v 0.1 0.6 -0.2
v 0.1 0.6 -0.3
v 0.1 0.7 -0.2
v 0.1 0.7 -0.3
v 0.2 0.4 0
v 0.2 0.4 -0.1
v 0.2 0.5 0
v 0.2 0.5 -0.1
v 0.2 0.7 0
v 0.2 0.7 -0.1
v 0.2 0.8 0
v 0.2 0.8 -0.1
v 0.3 0.3 0.2
v 0.3 0.3 0
v 0.3 0.4 0.2
v 0.3 0.4 0
v 0.3 0.5 -0.1
v 0.3 0.5 -0.2
v 0.3 0.6 0.3
v 0.3 0.6 0.2
v 0.3 0.7 0.3
v 0.3 0.7 0.2
v 0.3 0.7 0
v 0.3 0.7 -0.1
v 0.3 0.7 -0.2
v 0.3 0.8 0.2
v 0.3 0.8 0
v 0.4 0.4 0.3
v 0.4 0.4 0
v 0.4 0.5 0.2
v 0.4 0.5 0
v 0.4 0.5 -0.1
v 0.4 0.6 0.3
v 0.4 0.6 0.2
v 0.4 0.7 0.2
v 0.4 0.7 -0.1
v -0.3 0.4 0.4
v -0.3 0.5 0.4
v -0.3 0.6 0.4
v -0.1 0.4 0.4
v -0.1 0.5 0.4
v -0.1 0.6 0.4
v -0.4 0.4 0.3
v -0.4 0.5 0.3
v -0.4 0.7 0.3
v -0.3 0.4 0.3
v -0.3 0.5 0.3
v -0.3 0.6 0.3
v -0.3 0.7 0.3
v -0.3 0.8 0.3
v -0.1 0.6 0.3
v -0.1 0.8 0.3
v 0.1 0.4 0.3
v 0.1 0.5 0.3
v 0.1 0.6 0.3
v 0.2 0.4 0.3
v 0.2 0.5 0.3
v 0.2 0.6 0.3
v 0.2 0.7 0.3
v 0.3 0.4 0.3
v 0.3 0.5 0.3
v 0.3 0.6 0.3
v 0.3 0.7 0.3
v 0.4 0.4 0.3
v 0.4 0.6 0.3
v -0.4 0.3 0.2
v -0.4 0.4 0.2
v -0.3 0.3 0.2
v -0.3 0.4 0.2
v -0.2 0.4 0.2
v -0.1 0.2 0.2
v -0.1 0.3 0.2
v -0.1 0.4 0.2
v -0.1 0.5 0.2
v -0.1 0.6 0.2
v 0 0.2 0.2
v 0 0.5 0.2
v 0 0.6 0.2
v 0.1 0.3 0.2
v 0.1 0.4 0.2
v 0.1 0.6 0.2
v 0.1 0.7 0.2
v 0.1 0.8 0.2
v 0.2 0.4 0.2
v 0.2 0.6 0.2
v 0.2 0.7 0.2
v 0.3 0.3 0.2
v 0.3 0.4 0.2
v 0.3 0.6 0.2
v 0.3 0.7 0.2
v 0.3 0.8 0.2
v 0.4 0.6 0.2
v 0.4 0.7 0.2
v -0.2 0.2 0.1
v -0.2 0.3 0.1
v -0.1 0.2 0.1
v -0.1 0.3 0.1
v 0 0.3 0.1
v 0 0.4 0.1
v 0 0.5 0.1
v 0 0.6 0.1
v 0.1 0.3 0.1
v 0.1 0.4 0.1
v 0.1 0.5 0.1
v 0.1 0.6 0.1
v -0.1 0 0
v -0.1 0.2 0
v -0.1 0.6 0
v -0.1 0.7 0
v 0 0 0
v 0 0.2 0
v 0 0.6 0
v 0 0.7 0
v -0.3 0.5 -0.1
v -0.3 0.6 -0.1
v -0.3 0.7 -0.1
v -0.2 0.4 -0.1
v -0.2 0.5 -0.1
v -0.2 0.6 -0.1
v -0.2 0.7 -0.1
v -0.2 0.8 -0.1
v -0.1 0.4 -0.1
v -0.1 0.5 -0.1
v -0.1 0.7 -0.1
v 0 0.6 -0.1
v 0 0.7 -0.1
v 0 0.8 -0.1
v 0.1 0.6 -0.1
v 0.1 0.7 -0.1
v -0.4 0.6 0.1
v -0.4 0.7 0.1
v -0.3 0.6 0.1
v -0.3 0.7 0.1
v -0.3 0.8 0.1
v -0.1 0.7 0.1
v -0.1 0.8 0.1
v -0.4 0.3 0
v -0.4 0.4 0
v -0.4 0.5 0
v -0.4 0.6 0
v -0.3 0.3 0
v -0.3 0.4 0
v -0.3 0.6 0
v -0.3 0.7 0
v -0.2 0.2 0
v -0.2 0.3 0
v -0.2 0.4 0
v -0.2 0.5 0
v -0.2 0.6 0
v -0.2 0.7 0
v -0.1 0.2 0
v -0.1 0.3 0
v -0.1 0.4 0
v -0.1 0.5 0
v 0.1 0.3 0
v 0.1 0.4 0
v 0.2 0.4 0
v 0.2 0.5 0
v 0.2 0.7 0
v 0.2 0.8 0
v 0.3 0.3 0
v 0.3 0.4 0
v 0.3 0.5 0
v 0.3 0.7 0
v 0.3 0.8 0
v 0.4 0.4 0
v 0.4 0.5 0
v -0.4 0.4 -0.1
v -0.4 0.5 -0.1
v -0.3 0.4 -0.1
v -0.3 0.5 -0.1
v -0.1 0 -0.1
v -0.1 0.2 -0.1
v -0.1 0.3 -0.1
v 0 0 -0.1
v 0 0.2 -0.1
v 0 0.3 -0.1
v 0.1 0.4 -0.1
v 0.1 0.5 -0.1
v 0.1 0.7 -0.1
v 0.1 0.8 -0.1
v 0.2 0.4 -0.1
v 0.2 0.5 -0.1
v 0.2 0.7 -0.1
v 0.2 0.8 -0.1
v 0.3 0.5 -0.1
v 0.3 0.7 -0.1
v 0.4 0.5 -0.1
v 0.4 0.7 -0.1
v -0.3 0.4 -0.2
v -0.3 0.5 -0.2
v -0.2 0.5 -0.2
v -0.1 0.3 -0.2
v -0.1 0.4 -0.2
v -0.1 0.5 -0.2
v 0.1 0.3 -0.2
v 0.1 0.4 -0.2
v 0.1 0.5 -0.2
v 0.1 0.6 -0.2
v 0.1 0.7 -0.2
v 0.2 0.6 -0.2
v 0.2 0.7 -0.2
v 0.3 0.5 -0.2
v 0.3 0.7 -0.2
v -0.3 0.5 -0.3
v -0.3 0.7 -0.3
v -0.2 0.5 -0.3
v -0.2 0.7 -0.3
v -0.2 0.8 -0.3
v -0.1 0.4 -0.3
v -0.1 0.5 -0.3
v 0 0.5 -0.3
v 0 0.6 -0.3
v 0 0.7 -0.3
v 0 0.8 -0.3
v 0.1 0.4 -0.3
v 0.1 0.5 -0.3
v 0.1 0.6 -0.3
v 0.1 0.7 -0.3
v -0.2 0.5 -0.4
v -0.2 0.7 -0.4
v -0.1 0.5 -0.4
v -0.1 0.6 -0.4
v 0 0.5 -0.4
v 0 0.6 -0.4
v 0 0.7 -0.4
v -0.1 0 0
v 0 0 0
v -0.1 0 -0.1
v 0 0 -0.1
v -0.1 0.2 0.2
v 0 0.2 0.2
v -0.2 0.2 0.1
v -0.1 0.2 0.1
v 0 0.2 0.1
v -0.2 0.2 0
v -0.1 0.2 0
v 0 0.2 0
v -0.4 0.3 0.2
v -0.3 0.3 0.2
v -0.1 0.3 0.2
v 0.1 0.3 0.2
v 0.3 0.3 0.2
v -0.2 0.3 0.1
v -0.1 0.3 0.1
v 0 0.3 0.1
v 0.1 0.3 0.1
v -0.4 0.3 0
v -0.3 0.3 0
v -0.2 0.3 0
v 0 0.3 0
v 0.1 0.3 0
v 0.3 0.3 0
v -0.1 0.3 -0.1
v 0 0.3 -0.1
v 0.1 0.3 -0.1
v -0.1 0.3 -0.2
v 0.1 0.3 -0.2
v -0.3 0.4 0.4
v -0.1 0.4 0.4
v -0.4 0.4 0.3
v -0.3 0.4 0.3
v -0.2 0.4 0.3
v -0.1 0.4 0.3
v 0.1 0.4 0.3
v 0.2 0.4 0.3
v 0.3 0.4 0.3
v 0.4 0.4 0.3
v -0.4 0.4 0.2
v -0.3 0.4 0.2
v -0.2 0.4 0.2
v -0.1 0.4 0.2
v 0.1 0.4 0.2
v 0.2 0.4 0.2
v 0.3 0.4 0.2
v -0.4 0.4 0
v -0.3 0.4 0
v -0.2 0.4 0
v 0.1 0.4 0
v 0.2 0.4 0
v 0.3 0.4 0
v 0.4 0.4 0
v -0.4 0.4 -0.1
v -0.3 0.4 -0.1
v -0.2 0.4 -0.1
v -0.1 0.4 -0.1
v 0.1 0.4 -0.1
v 0.2 0.4 -0.1
v -0.3 0.4 -0.2
v -0.1 0.4 -0.2
v 0.1 0.4 -0.2
v -0.1 0.4 -0.3
v 0.1 0.4 -0.3
v -0.2 0.5 0
v -0.1 0.5 0
v 0.2 0.5 0
v 0.3 0.5 0
v 0.4 0.5 0
v -0.2 0.5 -0.1
v -0.1 0.5 -0.1
v 0.1 0.5 -0.1
v 0.2 0.5 -0.1
v 0.3 0.5 -0.1
v 0.4 0.5 -0.1
v -0.3 0.5 -0.2
v -0.2 0.5 -0.2
v -0.1 0.5 -0.2
v 0.1 0.5 -0.2
v 0.3 0.5 -0.2
v -0.3 0.5 -0.3
v -0.2 0.5 -0.3
v -0.1 0.5 -0.3
v 0 0.5 -0.3
v -0.2 0.5 -0.4
v -0.1 0.5 -0.4
v 0 0.5 -0.4
v -0.4 0.5 0
v -0.2 0.5 0
v -0.4 0.5 -0.1
v -0.3 0.5 -0.1
v -0.2 0.5 -0.1
v -0.3 0.6 0.4
v -0.1 0.6 0.4
v -0.3 0.6 0.3
v -0.1 0.6 0.3
v 0.1 0.6 0.3
v 0.2 0.6 0.3
v 0.3 0.6 0.3
v 0.4 0.6 0.3
v -0.1 0.6 0.2
v 0 0.6 0.2
v 0.1 0.6 0.2
v 0.2 0.6 0.2
v 0.3 0.6 0.2
v 0.4 0.6 0.2
v -0.4 0.6 0.1
v -0.3 0.6 0.1
v -0.1 0.6 0.1
v 0 0.6 0.1
v 0.1 0.6 0.1
v -0.4 0.6 0
v -0.3 0.6 0
v -0.1 0.6 0
v 0 0.6 0
v 0 0.6 -0.1
v 0.1 0.6 -0.1
v -0.4 0.7 0.3
v -0.3 0.7 0.3
v 0.2 0.7 0.3
v 0.3 0.7 0.3
v 0.2 0.7 0.2
v 0.3 0.7 0.2
v 0.4 0.7 0.2
v -0.4 0.7 0.1
v -0.3 0.7 0.1
v -0.1 0.7 0.1
v -0.3 0.7 0
v -0.2 0.7 0
v -0.1 0.7 0
v 0 0.7 0
v 0.2 0.7 0
v 0.3 0.7 0
v -0.3 0.7 -0.1
v -0.2 0.7 -0.1
v -0.1 0.7 -0.1
v 0 0.7 -0.1
v 0.1 0.7 -0.1
v 0.2 0.7 -0.1
v 0.3 0.7 -0.1
v 0.4 0.7 -0.1
v 0 0.7 -0.2
v 0.1 0.7 -0.2
v 0.2 0.7 -0.2
v 0.3 0.7 -0.2
v -0.3 0.7 -0.3
v -0.2 0.7 -0.3
v 0 0.7 -0.3
v 0.1 0.7 -0.3
v -0.2 0.7 -0.4
v 0 0.7 -0.4
v -0.3 0.8 0.3
v -0.1 0.8 0.3
v 0.1 0.8 0.2
v 0.3 0.8 0.2
v -0.3 0.8 0.1
v -0.1 0.8 0.1
v 0.2 0.8 0
v 0.3 0.8 0
v -0.2 0.8 -0.1
v 0 0.8 -0.1
v 0.1 0.8 -0.1
v 0.2 0.8 -0.1
v -0.2 0.8 -0.3
v 0 0.8 -0.3

# faces
f 4/1/1 2/1/1 1/1/1
f 5/1/1 2/1/1 4/1/1
f 7/1/1 4/1/1 3/1/1
f 7/1/1 6/1/1 5/1/1
f 7/1/1 5/1/1 4/1/1
f 8/1/1 6/1/1 7/1/1
f 9/1/1 6/1/1 8/1/1
f 10/1/1 6/1/1 9/1/1
f 11/2/1 8/2/1 7/2/1
f 11/1/1 9/1/1 8/1/1
f 12/1/1 9/1/1 11/1/1
f 13/1/1 9/1/1 12/1/1
f 14/2/1 11/2/1 7/2/1
f 14/2/1 12/2/1 11/2/1
f 15/2/1 12/2/1 14/2/1
f 20/1/1 17/1/1 16/1/1
f 21/1/1 17/1/1 20/1/1
f 22/3/1 19/3/1 18/3/1
f 23/3/1 19/3/1 22/3/1
f 25/2/1 21/2/1 20/2/1
f 26/2/1 21/2/1 25/2/1
f 29/1/1 23/1/1 22/1/1
f 30/2/1 24/2/1 23/2/1
f 30/1/1 23/1/1 29/1/1
f 32/2/1 28/2/1 27/2/1
f 33/2/1 28/2/1 32/2/1
f 34/2/1 30/2/1 29/2/1
f 35/2/1 24/2/1 30/2/1
f 35/2/1 30/2/1 34/2/1
f 36/2/1 32/2/1 31/2/1
f 37/2/1 32/2/1 36/2/1
f 40/3/1 39/3/1 38/3/1
f 41/3/1 39/3/1 40/3/1
f 46/1/1 43/1/1 42/1/1
f 47/1/1 43/1/1 46/1/1
f 48/2/1 47/2/1 46/2/1
f 49/2/1 47/2/1 48/2/1
f 50/2/1 45/2/1 44/2/1
f 51/2/1 45/2/1 50/2/1
f 52/2/1 50/2/1 49/2/1
f 53/2/1 50/2/1 52/2/1
f 58/5/1 55/5/1 54/5/1
f 59/5/1 55/5/1 58/5/1
f 60/3/1 57/3/1 56/3/1
f 61/3/1 57/3/1 60/3/1
f 62/6/1 59/6/1 58/6/1
f 63/6/1 59/6/1 62/6/1
f 65/6/1 63/6/1 62/6/1
f 66/3/1 64/3/1 63/3/1
f 66/6/1 63/6/1 65/6/1
f 67/3/1 64/3/1 66/3/1
f 69/6/1 66/6/1 65/6/1
f 70/6/1 66/6/1 69/6/1
f 71/3/1 68/3/1 67/3/1
f 72/3/1 68/3/1 71/3/1
f 76/3/1 74/3/1 73/3/1
f 77/3/1 74/3/1 76/3/1
f 78/1/1 76/1/1 75/1/1
f 79/5/1 77/5/1 76/5/1
f 79/1/1 76/1/1 78/1/1
f 80/5/1 77/5/1 79/5/1
f 81/2/1 79/2/1 78/2/1
f 82/5/1 80/5/1 79/5/1
f 82/2/1 79/2/1 81/2/1
f 83/5/1 80/5/1 82/5/1
f 85/1/1 83/1/1 82/1/1
f 85/1/1 84/1/1 83/1/1
f 86/1/1 84/1/1 85/1/1
f 87/2/1 86/2/1 85/2/1
f 88/2/1 86/2/1 87/2/1
f 91/1/1 90/1/1 89/1/1
f 92/1/1 90/1/1 91/1/1
f 93/1/2 94/1/2 95/1/2
f 95/1/2 94/1/2 96/1/2
f 97/1/2 98/1/2 100/1/2
f 98/3/2 99/3/2 101/3/2
f 100/1/2 98/1/2 101/1/2
f 101/3/2 99/3/2 102/3/2
f 100/2/2 101/2/2 103/2/2
f 101/1/2 102/1/2 104/1/2
f 103/2/2 101/2/2 104/2/2
f 104/1/2 102/1/2 105/1/2
f 104/2/2 105/2/2 108/2/2
f 105/1/2 106/1/2 108/1/2
f 106/2/2 107/2/2 109/2/2
f 108/1/2 106/1/2 109/1/2
f 109/2/2 107/2/2 110/2/2
f 104/2/2 108/2/2 111/2/2
f 108/2/2 109/2/2 111/2/2
f 111/2/2 109/2/2 112/2/2
f 113/5/2 114/5/2 117/5/2
f 117/5/2 114/5/2 118/5/2
f 115/3/2 116/3/2 119/3/2
f 116/5/2 117/5/2 119/5/2
f 117/6/2 118/6/2 120/6/2
f 119/5/2 117/5/2 120/5/2
f 120/6/2 118/6/2 121/6/2
f 115/3/2 119/3/2 122/3/2
f 115/3/2 122/3/2 123/3/2
f 123/3/2 122/3/2 124/3/2
f 123/1/2 124/1/2 127/1/2
f 127/1/2 124/1/2 128/1/2
f 125/1/2 126/1/2 131/1/2
f 131/1/2 126/1/2 132/1/2
f 129/1/2 130/1/2 133/1/2
f 133/1/2 130/1/2 134/1/2
f 131/2/2 132/2/2 136/2/2
f 136/2/2 132/2/2 137/2/2
f 134/2/2 135/2/2 138/2/2
f 135/2/2 136/2/2 138/2/2
f 138/2/2 136/2/2 139/2/2
f 140/6/2 141/6/2 143/6/2
f 141/3/2 142/3/2 144/3/2
f 143/6/2 141/6/2 144/6/2
f 144/3/2 142/3/2 145/3/2
f 144/1/2 145/1/2 147/1/2
f 145/3/2 146/3/2 148/3/2
f 147/1/2 145/1/2 148/1/2
f 148/3/2 146/3/2 149/3/2
f 148/1/2 149/1/2 150/1/2
f 150/1/2 149/1/2 151/1/2
f 150/2/2 151/2/2 152/2/2
f 152/2/2 151/2/2 153/2/2
f 154/1/2 155/1/2 156/1/2
f 156/1/2 155/1/2 157/1/2
f 158/2/2 159/2/2 160/2/2
f 160/2/2 159/2/2 161/2/2
f 162/3/2 163/3/2 164/3/2
f 164/3/2 163/3/2 165/3/2
f 168/1/2 169/1/2 170/1/2
f 170/1/2 169/1/2 171/1/2
f 166/1/2 167/1/2 173/1/2
f 173/1/2 167/1/2 174/1/2
f 171/2/2 172/2/2 175/2/2
f 175/2/2 172/2/2 176/2/2
f 177/1/2 178/1/2 179/1/2
f 179/1/2 178/1/2 180/1/2
f 177/1/2 179/1/2 182/1/2
f 180/2/2 181/2/2 183/2/2
f 182/1/2 179/1/2 183/1/2
f 179/2/2 180/2/2 183/2/2
f 183/2/2 181/2/2 184/2/2
f 184/2/2 181/2/2 185/2/2
f 189/1/3 187/1/3 186/1/3
f 190/2/3 188/2/3 187/2/3
f 190/1/3 187/1/3 189/1/3
f 191/2/3 188/2/3 190/2/3
f 195/1/3 193/1/3 192/1/3
f 196/2/3 194/2/3 193/2/3
f 196/1/3 193/1/3 195/1/3
f 197/2/3 194/2/3 196/2/3
f 198/2/3 194/2/3 197/2/3
f 200/2/3 199/2/3 198/2/3
f 200/2/3 198/2/3 197/2/3
f 201/2/3 199/2/3 200/2/3
f 205/1/3 203/1/3 202/1/3
f 206/2/3 204/2/3 203/2/3
f 206/1/3 203/1/3 205/1/3
f 207/2/3 204/2/3 206/2/3
f 209/3/3 206/3/3 205/3/3
f 210/1/3 208/1/3 207/1/3
f 210/3/3 206/3/3 209/3/3
f 210/1/3 207/1/3 206/1/3
f 211/1/3 208/1/3 210/1/3
f 212/1/3 208/1/3 211/1/3
f 213/1/3 210/1/3 209/1/3
f 213/1/3 211/1/3 210/1/3
f 214/1/3 211/1/3 213/1/3
f 217/1/3 216/1/3 215/1/3
f 218/1/3 216/1/3 217/1/3
f 219/3/3 218/3/3 217/3/3
f 221/3/3 219/3/3 217/3/3
f 222/3/3 219/3/3 221/3/3
f 225/3/3 222/3/3 221/3/3
f 225/3/3 221/3/3 220/3/3
f 225/3/3 223/3/3 222/3/3
f 226/1/3 224/1/3 223/1/3
f 226/3/3 223/3/3 225/3/3
f 227/1/3 224/1/3 226/1/3
f 233/3/3 229/3/3 228/3/3
f 234/1/3 231/1/3 230/1/3
f 235/2/3 232/2/3 231/2/3
f 235/1/3 231/1/3 234/1/3
f 236/3/3 233/3/3 228/3/3
f 237/3/3 233/3/3 236/3/3
f 239/2/3 232/2/3 235/2/3
f 240/2/3 232/2/3 239/2/3
f 241/2/3 239/2/3 238/2/3
f 242/2/3 239/2/3 241/2/3
f 245/3/3 244/3/3 243/3/3
f 246/3/3 244/3/3 245/3/3
f 251/6/3 248/6/3 247/6/3
f 252/5/3 249/5/3 248/5/3
f 252/6/3 248/6/3 251/6/3
f 253/1/3 250/1/3 249/1/3
f 253/5/3 249/5/3 252/5/3
f 254/1/3 250/1/3 253/1/3
f 259/5/3 256/5/3 255/5/3
f 260/5/3 256/5/3 259/5/3
f 261/1/3 258/1/3 257/1/3
f 262/1/3 258/1/3 261/1/3
f 267/1/3 264/1/3 263/1/3
f 268/2/3 265/2/3 264/2/3
f 268/1/3 264/1/3 267/1/3
f 269/2/3 265/2/3 268/2/3
f 271/3/3 267/3/3 266/3/3
f 272/3/3 267/3/3 271/3/3
f 273/2/3 270/2/3 269/2/3
f 275/2/3 270/2/3 273/2/3
f 276/2/3 270/2/3 275/2/3
f 277/1/3 275/1/3 274/1/3
f 278/1/3 275/1/3 277/1/3
f 279/2/4 280/2/4 281/2/4
f 281/2/4 280/2/4 282/2/4
f 282/2/4 283/2/4 284/2/4
f 284/2/4 283/2/4 285/2/4
f 286/1/4 287/1/4 290/1/4
f 290/1/4 287/1/4 291/1/4
f 288/1/4 289/1/4 292/1/4
f 290/3/4 291/3/4 295/3/4
f 295/3/4 291/3/4 296/3/4
f 288/1/4 292/1/4 297/1/4
f 292/2/4 293/2/4 298/2/4
f 297/1/4 292/1/4 298/1/4
f 298/2/4 293/2/4 299/2/4
f 294/3/4 295/3/4 300/3/4
f 295/6/4 296/6/4 301/6/4
f 300/3/4 295/3/4 301/3/4
f 296/5/4 297/5/4 302/5/4
f 301/6/4 296/6/4 302/6/4
f 302/5/4 297/5/4 303/5/4
f 304/3/4 305/3/4 306/3/4
f 304/3/4 306/3/4 310/3/4
f 306/1/4 307/1/4 311/1/4
f 310/3/4 306/3/4 311/3/4
f 311/1/4 307/1/4 312/1/4
f 308/2/4 309/2/4 313/2/4
f 313/2/4 309/2/4 314/2/4
f 311/1/4 312/1/4 315/1/4
f 315/1/4 312/1/4 316/1/4
f 317/1/4 318/1/4 319/1/4
f 319/1/4 318/1/4 320/1/4
f 321/5/4 322/5/4 324/5/4
f 322/6/4 323/6/4 325/6/4
f 324/5/4 322/5/4 325/5/4
f 325/6/4 323/6/4 326/6/4
f 327/1/4 328/1/4 331/1/4
f 331/1/4 328/1/4 332/1/4
f 329/2/4 330/2/4 333/2/4
f 333/2/4 330/2/4 334/2/4
f 335/2/4 336/2/4 337/2/4
f 337/2/4 336/2/4 338/2/4
f 339/3/4 340/3/4 341/3/4
f 339/3/4 341/3/4 343/3/4
f 343/3/4 341/3/4 344/3/4
f 342/3/4 343/3/4 345/3/4
f 345/3/4 343/3/4 346/3/4
f 348/2/4 349/2/4 350/2/4
f 347/1/4 348/1/4 350/1/4
f 350/2/4 349/2/4 351/2/4
f 347/1/4 350/1/4 352/1/4
f 350/1/4 351/1/4 352/1/4
f 352/1/4 351/1/4 353/1/4
f 354/2/4 355/2/4 356/2/4
f 356/2/4 355/2/4 357/2/4
f 359/3/4 360/3/4 361/3/4
f 357/2/4 358/2/4 363/2/4
f 363/2/4 358/2/4 364/2/4
f 359/3/4 361/3/4 365/3/4
f 361/1/4 362/1/4 366/1/4
f 365/3/4 361/3/4 366/3/4
f 362/2/4 363/2/4 367/2/4
f 366/1/4 362/1/4 367/1/4
f 367/2/4 363/2/4 368/2/4
f 369/2/4 370/2/4 371/2/4
f 371/2/4 370/2/4 372/2/4
f 371/1/4 372/1/4 373/1/4
f 372/2/4 370/2/4 374/2/4
f 373/1/4 372/1/4 374/1/4
f 374/2/4 370/2/4 375/2/4
f 378/5/5 377/5/5 376/5/5
f 379/5/5 377/5/5 378/5/5
f 383/3/5 381/3/5 380/3/5
f 384/3/5 381/3/5 383/3/5
f 385/3/5 383/3/5 382/3/5
f 386/5/5 384/5/5 383/5/5
f 386/3/5 383/3/5 385/3/5
f 387/5/5 384/5/5 386/5/5
f 393/3/5 390/3/5 389/3/5
f 394/3/5 390/3/5 393/3/5
f 396/3/5 392/3/5 391/3/5
f 397/1/5 389/1/5 388/1/5
f 398/3/5 393/3/5 389/3/5
f 398/1/5 389/1/5 397/1/5
f 399/3/5 393/3/5 398/3/5
f 400/6/5 396/6/5 395/6/5
f 401/3/5 392/3/5 396/3/5
f 401/6/5 396/6/5 400/6/5
f 402/3/5 392/3/5 401/3/5
f 404/6/5 401/6/5 400/6/5
f 405/6/5 401/6/5 404/6/5
f 406/3/5 404/3/5 403/3/5
f 406/3/5 405/3/5 404/3/5
f 407/3/5 405/3/5 406/3/5
f 411/1/5 409/1/5 408/1/5
f 412/1/5 409/1/5 411/1/5
f 413/1/5 409/1/5 412/1/5
f 418/1/5 411/1/5 410/1/5
f 418/1/5 412/1/5 411/1/5
f 419/1/5 412/1/5 418/1/5
f 420/3/5 413/3/5 412/3/5
f 420/1/5 412/1/5 419/1/5
f 421/3/5 413/3/5 420/3/5
f 422/1/5 415/1/5 414/1/5
f 423/3/5 416/3/5 415/3/5
f 423/1/5 415/1/5 422/1/5
f 424/1/5 417/1/5 416/1/5
f 424/3/5 416/3/5 423/3/5
f 430/1/5 417/1/5 424/1/5
f 431/1/5 417/1/5 430/1/5
f 432/1/5 426/1/5 425/1/5
f 432/1/5 427/1/5 426/1/5
f 433/1/5 427/1/5 432/1/5
f 434/1/5 427/1/5 433/1/5
f 436/1/5 429/1/5 428/1/5
f 437/1/5 429/1/5 436/1/5
f 438/3/5 435/3/5 434/3/5
f 438/3/5 434/3/5 433/3/5
f 439/3/5 435/3/5 438/3/5
f 441/3/5 440/3/5 439/3/5
f 442/3/5 440/3/5 441/3/5
f 448/1/5 444/1/5 443/1/5
f 449/1/5 444/1/5 448/1/5
f 451/1/5 446/1/5 445/1/5
f 452/2/5 447/2/5 446/2/5
f 452/1/5 446/1/5 451/1/5
f 453/2/5 447/2/5 452/2/5
f 457/1/5 451/1/5 450/1/5
f 457/1/5 452/1/5 451/1/5
f 458/1/5 452/1/5 457/1/5
f 459/2/5 455/2/5 454/2/5
f 460/1/5 456/1/5 455/1/5
f 460/2/5 455/2/5 459/2/5
f 461/1/5 456/1/5 460/1/5
f 463/2/5 461/2/5 460/2/5
f 464/1/5 462/1/5 461/1/5
f 464/2/5 461/2/5 463/2/5
f 465/1/5 462/1/5 464/1/5
f 466/1/6 467/1/6 468/1/6
f 468/1/6 467/1/6 469/1/6
f 469/1/6 467/1/6 470/1/6
f 471/2/6 472/2/6 473/2/6
f 473/2/6 472/2/6 474/2/6
f 475/2/6 476/2/6 481/2/6
f 481/2/6 476/2/6 482/2/6
f 477/1/6 478/1/6 483/1/6
f 483/1/6 478/1/6 484/1/6
f 479/1/6 480/1/6 487/1/6
f 487/1/6 480/1/6 488/1/6
f 485/1/6 486/1/6 490/1/6
f 490/1/6 486/1/6 491/1/6
f 488/1/6 489/1/6 492/1/6
f 487/1/6 488/1/6 492/1/6
f 492/1/6 489/1/6 493/1/6
f 493/1/6 489/1/6 494/1/6
f 494/1/6 489/1/6 495/1/6
f 498/1/6 499/1/6 500/1/6
f 500/1/6 499/1/6 501/1/6
f 496/2/6 497/2/6 503/2/6
f 503/2/6 497/2/6 504/2/6
f 504/2/6 505/2/6 506/2/6
f 506/2/6 505/2/6 507/2/6
f 507/2/6 505/2/6 508/2/6
f 501/2/6 502/2/6 511/2/6
f 507/2/6 508/2/6 513/2/6
f 508/1/6 509/1/6 514/1/6
f 513/2/6 508/2/6 514/2/6
f 514/1/6 509/1/6 515/1/6
f 510/2/6 511/2/6 517/2/6
f 511/2/6 502/2/6 518/2/6
f 517/2/6 511/2/6 518/2/6
f 518/2/6 502/2/6 519/2/6
f 515/1/6 516/1/6 520/1/6
f 516/2/6 517/2/6 521/2/6
f 520/1/6 516/1/6 521/1/6
f 517/1/6 518/1/6 522/1/6
f 521/2/6 517/2/6 522/2/6
f 522/1/6 518/1/6 523/1/6
f 512/2/6 513/2/6 524/2/6
f 524/2/6 513/2/6 525/2/6
f 520/2/6 521/2/6 526/2/6
f 526/2/6 521/2/6 527/2/6
f 525/2/6 526/2/6 528/2/6
f 528/2/6 526/2/6 529/2/6
f 530/2/6 531/2/6 534/2/6
f 534/2/6 531/2/6 535/2/6
f 532/2/6 533/2/6 536/2/6
f 536/2/6 533/2/6 537/2/6
f 532/2/6 536/2/6 540/2/6
f 540/2/6 536/2/6 541/2/6
f 538/2/6 539/2/6 542/2/6
f 542/2/6 539/2/6 543/2/6
