# MagicaVoxel @ Ephtracy

# group
o 

# material
mtllib movable_blocks-2.mtl
usemtl palette

# normals
vn -1 0 0
vn 1 0 0
vn 0 0 1
vn 0 0 -1
vn 0 -1 0
vn 0 1 0

# texcoords
vt 0.939453 0.5
vt 0.970703 0.5
vt 0.974609 0.5
vt 0.978516 0.5

# verts
v -0.5 0 0.5
v -0.5 0 -0.5
v -0.5 0.1 0.1
v -0.5 0.1 -0.1
v -0.5 0.2 0.2
v -0.5 0.2 0.1
v -0.5 0.2 -0.1
v -0.5 0.2 -0.2
v -0.5 0.4 0.3
v -0.5 0.4 0.2
v -0.5 0.4 0.1
v -0.5 0.4 -0.1
v -0.5 0.4 -0.2
v -0.5 0.4 -0.3
v -0.5 0.5 0.1
v -0.5 0.5 -0.1
v -0.5 1 0.5
v -0.5 1 0.3
v -0.5 1 0.2
v -0.5 1 -0.2
v -0.5 1 -0.3
v -0.5 1 -0.5
v 0.5 0 0.5
v 0.5 0 -0.5
v 0.5 0.1 0.1
v 0.5 0.1 -0.1
v 0.5 0.2 0.2
v 0.5 0.2 0.1
v 0.5 0.2 -0.1
v 0.5 0.2 -0.2
v 0.5 0.4 0.3
v 0.5 0.4 0.2
v 0.5 0.4 0.1
v 0.5 0.4 -0.1
v 0.5 0.4 -0.2
v 0.5 0.4 -0.3
v 0.5 0.5 0.1
v 0.5 0.5 -0.1
v 0.5 1 0.5
v 0.5 1 0.3
v 0.5 1 0.2
v 0.5 1 -0.2
v 0.5 1 -0.3
v 0.5 1 -0.5
v -0.5 0 0.5
v -0.5 1 0.5
v -0.4 0.3 0.5
v -0.4 0.7 0.5
v -0.3 0.2 0.5
v -0.3 0.3 0.5
v -0.3 0.7 0.5
v -0.3 0.8 0.5
v -0.2 0.1 0.5
v -0.2 0.2 0.5
v -0.2 0.3 0.5
v -0.2 0.4 0.5
v -0.2 0.6 0.5
v -0.2 0.7 0.5
v -0.2 0.8 0.5
v -0.2 0.9 0.5
v -0.1 0.3 0.5
v -0.1 0.4 0.5
v -0.1 0.6 0.5
v -0.1 0.7 0.5
v 0.1 0.3 0.5
v 0.1 0.4 0.5
v 0.1 0.6 0.5
v 0.1 0.7 0.5
v 0.2 0.1 0.5
v 0.2 0.2 0.5
v 0.2 0.3 0.5
v 0.2 0.4 0.5
v 0.2 0.6 0.5
v 0.2 0.7 0.5
v 0.2 0.8 0.5
v 0.2 0.9 0.5
v 0.3 0.2 0.5
v 0.3 0.3 0.5
v 0.3 0.7 0.5
v 0.3 0.8 0.5
v 0.4 0.3 0.5
v 0.4 0.7 0.5
v 0.5 0 0.5
v 0.5 1 0.5
v -0.5 0 -0.5
v -0.5 1 -0.5
v 0.5 0 -0.5
v 0.5 1 -0.5
v -0.5 0 0.5
v 0.5 0 0.5
v -0.5 0 -0.5
v 0.5 0 -0.5
v -0.5 1 0.5
v 0.5 1 0.5
v -0.5 1 0.3
v 0.5 1 0.3
v -0.5 1 0.2
v 0.5 1 0.2
v -0.5 1 -0.2
v 0.5 1 -0.2
v -0.5 1 -0.3
v 0.5 1 -0.3
v -0.5 1 -0.5
v 0.5 1 -0.5

# faces
f 3/2/1 2/2/1 1/2/1
f 4/2/1 2/2/1 3/2/1
f 5/2/1 3/2/1 1/2/1
f 6/1/1 4/1/1 3/1/1
f 6/2/1 3/2/1 5/2/1
f 7/2/1 2/2/1 4/2/1
f 7/1/1 4/1/1 6/1/1
f 8/2/1 2/2/1 7/2/1
f 9/2/1 5/2/1 1/2/1
f 10/1/1 6/1/1 5/1/1
f 10/2/1 5/2/1 9/2/1
f 11/2/1 7/2/1 6/2/1
f 11/1/1 6/1/1 10/1/1
f 12/1/1 8/1/1 7/1/1
f 12/2/1 7/2/1 11/2/1
f 13/2/1 2/2/1 8/2/1
f 13/1/1 8/1/1 12/1/1
f 14/2/1 2/2/1 13/2/1
f 15/1/1 12/1/1 11/1/1
f 15/2/1 11/2/1 10/2/1
f 16/2/1 13/2/1 12/2/1
f 16/1/1 12/1/1 15/1/1
f 17/2/1 9/2/1 1/2/1
f 18/1/1 10/1/1 9/1/1
f 18/2/1 9/2/1 17/2/1
f 19/2/1 15/2/1 10/2/1
f 19/1/1 10/1/1 18/1/1
f 19/2/1 16/2/1 15/2/1
f 20/2/1 13/2/1 16/2/1
f 20/2/1 16/2/1 19/2/1
f 20/1/1 14/1/1 13/1/1
f 21/2/1 2/2/1 14/2/1
f 21/1/1 14/1/1 20/1/1
f 22/2/1 2/2/1 21/2/1
f 23/2/2 24/2/2 25/2/2
f 25/2/2 24/2/2 26/2/2
f 23/2/2 25/2/2 27/2/2
f 25/1/2 26/1/2 28/1/2
f 27/2/2 25/2/2 28/2/2
f 26/2/2 24/2/2 29/2/2
f 28/1/2 26/1/2 29/1/2
f 29/2/2 24/2/2 30/2/2
f 23/2/2 27/2/2 31/2/2
f 27/1/2 28/1/2 32/1/2
f 31/2/2 27/2/2 32/2/2
f 28/2/2 29/2/2 33/2/2
f 32/1/2 28/1/2 33/1/2
f 29/1/2 30/1/2 34/1/2
f 33/2/2 29/2/2 34/2/2
f 30/2/2 24/2/2 35/2/2
f 34/1/2 30/1/2 35/1/2
f 35/2/2 24/2/2 36/2/2
f 33/1/2 34/1/2 37/1/2
f 32/2/2 33/2/2 37/2/2
f 34/2/2 35/2/2 38/2/2
f 37/1/2 34/1/2 38/1/2
f 23/2/2 31/2/2 39/2/2
f 31/1/2 32/1/2 40/1/2
f 39/2/2 31/2/2 40/2/2
f 32/2/2 37/2/2 41/2/2
f 40/1/2 32/1/2 41/1/2
f 37/2/2 38/2/2 41/2/2
f 38/2/2 35/2/2 42/2/2
f 41/2/2 38/2/2 42/2/2
f 35/1/2 36/1/2 42/1/2
f 36/2/2 24/2/2 43/2/2
f 42/1/2 36/1/2 43/1/2
f 43/2/2 24/2/2 44/2/2
f 47/2/3 46/2/3 45/2/3
f 48/2/3 46/2/3 47/2/3
f 49/2/3 47/2/3 45/2/3
f 50/3/3 48/3/3 47/3/3
f 50/2/3 47/2/3 49/2/3
f 51/2/3 46/2/3 48/2/3
f 51/3/3 48/3/3 50/3/3
f 52/2/3 46/2/3 51/2/3
f 53/2/3 49/2/3 45/2/3
f 54/3/3 50/3/3 49/3/3
f 54/2/3 49/2/3 53/2/3
f 55/4/3 51/4/3 50/4/3
f 55/3/3 50/3/3 54/3/3
f 56/4/3 51/4/3 55/4/3
f 57/4/3 51/4/3 56/4/3
f 58/3/3 52/3/3 51/3/3
f 58/4/3 51/4/3 57/4/3
f 59/2/3 46/2/3 52/2/3
f 59/3/3 52/3/3 58/3/3
f 60/2/3 46/2/3 59/2/3
f 61/4/3 55/4/3 54/4/3
f 61/4/3 56/4/3 55/4/3
f 62/1/3 57/1/3 56/1/3
f 62/4/3 56/4/3 61/4/3
f 63/4/3 58/4/3 57/4/3
f 63/1/3 57/1/3 62/1/3
f 63/4/3 59/4/3 58/4/3
f 64/4/3 59/4/3 63/4/3
f 65/1/3 62/1/3 61/1/3
f 65/4/3 61/4/3 54/4/3
f 65/1/3 64/1/3 63/1/3
f 65/1/3 63/1/3 62/1/3
f 66/1/3 64/1/3 65/1/3
f 67/1/3 64/1/3 66/1/3
f 68/4/3 59/4/3 64/4/3
f 68/1/3 64/1/3 67/1/3
f 69/2/3 53/2/3 45/2/3
f 69/3/3 54/3/3 53/3/3
f 70/4/3 65/4/3 54/4/3
f 70/3/3 54/3/3 69/3/3
f 70/4/3 66/4/3 65/4/3
f 71/4/3 66/4/3 70/4/3
f 72/1/3 67/1/3 66/1/3
f 72/4/3 66/4/3 71/4/3
f 73/4/3 68/4/3 67/4/3
f 73/1/3 67/1/3 72/1/3
f 74/4/3 59/4/3 68/4/3
f 74/4/3 68/4/3 73/4/3
f 75/3/3 60/3/3 59/3/3
f 75/4/3 59/4/3 74/4/3
f 76/2/3 46/2/3 60/2/3
f 76/3/3 60/3/3 75/3/3
f 77/3/3 71/3/3 70/3/3
f 77/2/3 70/2/3 69/2/3
f 78/4/3 73/4/3 72/4/3
f 78/3/3 71/3/3 77/3/3
f 78/4/3 72/4/3 71/4/3
f 78/4/3 74/4/3 73/4/3
f 79/3/3 75/3/3 74/3/3
f 79/4/3 74/4/3 78/4/3
f 80/2/3 76/2/3 75/2/3
f 80/3/3 75/3/3 79/3/3
f 81/3/3 79/3/3 78/3/3
f 81/2/3 78/2/3 77/2/3
f 82/2/3 80/2/3 79/2/3
f 82/3/3 79/3/3 81/3/3
f 83/2/3 77/2/3 69/2/3
f 83/2/3 69/2/3 45/2/3
f 83/2/3 82/2/3 81/2/3
f 83/2/3 81/2/3 77/2/3
f 84/2/3 80/2/3 82/2/3
f 84/2/3 82/2/3 83/2/3
f 84/2/3 46/2/3 76/2/3
f 84/2/3 76/2/3 80/2/3
f 85/2/4 86/2/4 87/2/4
f 87/2/4 86/2/4 88/2/4
f 91/2/5 90/2/5 89/2/5
f 92/2/5 90/2/5 91/2/5
f 93/2/6 94/2/6 95/2/6
f 95/2/6 94/2/6 96/2/6
f 95/1/6 96/1/6 97/1/6
f 97/1/6 96/1/6 98/1/6
f 97/2/6 98/2/6 99/2/6
f 99/2/6 98/2/6 100/2/6
f 99/1/6 100/1/6 101/1/6
f 101/1/6 100/1/6 102/1/6
f 101/2/6 102/2/6 103/2/6
f 103/2/6 102/2/6 104/2/6
