# MagicaVoxel @ Ephtracy

# group
o 

# material
mtllib simple_block_8.mtl
usemtl palette

# normals
vn -1 0 0
vn 1 0 0
vn 0 0 1
vn 0 0 -1
vn 0 -1 0
vn 0 1 0

# texcoords
vt 0.970703 0.5
vt 0.978516 0.5
vt 0.982422 0.5
vt 0.986328 0.5

# verts
v -0.5 0 0.5
v -0.5 0 -0.5
v -0.5 0.1 0.4
v -0.5 0.1 -0.4
v -0.5 0.2 0.3
v -0.5 0.2 -0.3
v -0.5 0.3 0.2
v -0.5 0.3 -0.2
v -0.5 0.4 0.1
v -0.5 0.4 -0.1
v -0.5 0.6 0.1
v -0.5 0.6 -0.1
v -0.5 0.7 0.2
v -0.5 0.7 -0.2
v -0.5 0.8 0.3
v -0.5 0.8 -0.3
v -0.5 0.9 0.4
v -0.5 0.9 -0.4
v -0.5 1 0.5
v -0.5 1 -0.5
v -0.4 0.2 0.3
v -0.4 0.2 -0.3
v -0.4 0.3 0.2
v -0.4 0.3 -0.2
v -0.4 0.7 0.2
v -0.4 0.7 -0.2
v -0.4 0.8 0.3
v -0.4 0.8 -0.3
v -0.2 0.3 0.5
v -0.2 0.3 0.4
v -0.2 0.3 -0.4
v -0.2 0.3 -0.5
v -0.2 0.7 0.5
v -0.2 0.7 0.4
v -0.2 0.7 -0.4
v -0.2 0.7 -0.5
v 0.3 0.2 0.5
v 0.3 0.2 0.4
v 0.3 0.2 -0.4
v 0.3 0.2 -0.5
v 0.3 0.8 0.5
v 0.3 0.8 0.4
v 0.3 0.8 -0.4
v 0.3 0.8 -0.5
v -0.3 0.2 0.5
v -0.3 0.2 0.4
v -0.3 0.2 -0.4
v -0.3 0.2 -0.5
v -0.3 0.8 0.5
v -0.3 0.8 0.4
v -0.3 0.8 -0.4
v -0.3 0.8 -0.5
v 0.2 0.3 0.5
v 0.2 0.3 0.4
v 0.2 0.3 -0.4
v 0.2 0.3 -0.5
v 0.2 0.7 0.5
v 0.2 0.7 0.4
v 0.2 0.7 -0.4
v 0.2 0.7 -0.5
v 0.4 0.2 0.3
v 0.4 0.2 -0.3
v 0.4 0.3 0.2
v 0.4 0.3 -0.2
v 0.4 0.7 0.2
v 0.4 0.7 -0.2
v 0.4 0.8 0.3
v 0.4 0.8 -0.3
v 0.5 0 0.5
v 0.5 0 -0.5
v 0.5 0.1 0.4
v 0.5 0.1 -0.4
v 0.5 0.2 0.3
v 0.5 0.2 -0.3
v 0.5 0.3 0.2
v 0.5 0.3 -0.2
v 0.5 0.4 0.1
v 0.5 0.4 -0.1
v 0.5 0.6 0.1
v 0.5 0.6 -0.1
v 0.5 0.7 0.2
v 0.5 0.7 -0.2
v 0.5 0.8 0.3
v 0.5 0.8 -0.3
v 0.5 0.9 0.4
v 0.5 0.9 -0.4
v 0.5 1 0.5
v 0.5 1 -0.5
v -0.5 0 0.5
v -0.5 1 0.5
v -0.4 0.1 0.5
v -0.4 0.9 0.5
v -0.3 0.2 0.5
v -0.3 0.8 0.5
v -0.2 0.3 0.5
v -0.2 0.7 0.5
v -0.1 0.4 0.5
v -0.1 0.6 0.5
v 0.1 0.4 0.5
v 0.1 0.6 0.5
v 0.2 0.3 0.5
v 0.2 0.7 0.5
v 0.3 0.2 0.5
v 0.3 0.8 0.5
v 0.4 0.1 0.5
v 0.4 0.9 0.5
v 0.5 0 0.5
v 0.5 1 0.5
v -0.3 0.2 0.4
v -0.3 0.8 0.4
v -0.2 0.3 0.4
v -0.2 0.7 0.4
v 0.2 0.3 0.4
v 0.2 0.7 0.4
v 0.3 0.2 0.4
v 0.3 0.8 0.4
v -0.5 0.3 0.2
v -0.5 0.7 0.2
v -0.4 0.3 0.2
v -0.4 0.7 0.2
v 0.4 0.3 0.2
v 0.4 0.7 0.2
v 0.5 0.3 0.2
v 0.5 0.7 0.2
v -0.5 0.2 -0.3
v -0.5 0.8 -0.3
v -0.4 0.2 -0.3
v -0.4 0.8 -0.3
v 0.4 0.2 -0.3
v 0.4 0.8 -0.3
v 0.5 0.2 -0.3
v 0.5 0.8 -0.3
v -0.5 0.2 0.3
v -0.5 0.8 0.3
v -0.4 0.2 0.3
v -0.4 0.8 0.3
v 0.4 0.2 0.3
v 0.4 0.8 0.3
v 0.5 0.2 0.3
v 0.5 0.8 0.3
v -0.5 0.3 -0.2
v -0.5 0.7 -0.2
v -0.4 0.3 -0.2
v -0.4 0.7 -0.2
v 0.4 0.3 -0.2
v 0.4 0.7 -0.2
v 0.5 0.3 -0.2
v 0.5 0.7 -0.2
v -0.3 0.2 -0.4
v -0.3 0.8 -0.4
v -0.2 0.3 -0.4
v -0.2 0.7 -0.4
v 0.2 0.3 -0.4
v 0.2 0.7 -0.4
v 0.3 0.2 -0.4
v 0.3 0.8 -0.4
v -0.5 0 -0.5
v -0.5 1 -0.5
v -0.4 0.1 -0.5
v -0.4 0.9 -0.5
v -0.3 0.2 -0.5
v -0.3 0.8 -0.5
v -0.2 0.3 -0.5
v -0.2 0.7 -0.5
v -0.1 0.4 -0.5
v -0.1 0.6 -0.5
v 0.1 0.4 -0.5
v 0.1 0.6 -0.5
v 0.2 0.3 -0.5
v 0.2 0.7 -0.5
v 0.3 0.2 -0.5
v 0.3 0.8 -0.5
v 0.4 0.1 -0.5
v 0.4 0.9 -0.5
v 0.5 0 -0.5
v 0.5 1 -0.5
v -0.5 0 0.5
v 0.5 0 0.5
v -0.5 0 -0.5
v 0.5 0 -0.5
v -0.2 0.3 0.5
v 0.2 0.3 0.5
v -0.2 0.3 0.4
v 0.2 0.3 0.4
v -0.5 0.3 0.2
v -0.4 0.3 0.2
v 0.4 0.3 0.2
v 0.5 0.3 0.2
v -0.5 0.3 -0.2
v -0.4 0.3 -0.2
v 0.4 0.3 -0.2
v 0.5 0.3 -0.2
v -0.2 0.3 -0.4
v 0.2 0.3 -0.4
v -0.2 0.3 -0.5
v 0.2 0.3 -0.5
v -0.3 0.8 0.5
v 0.3 0.8 0.5
v -0.3 0.8 0.4
v 0.3 0.8 0.4
v -0.5 0.8 0.3
v -0.4 0.8 0.3
v 0.4 0.8 0.3
v 0.5 0.8 0.3
v -0.5 0.8 -0.3
v -0.4 0.8 -0.3
v 0.4 0.8 -0.3
v 0.5 0.8 -0.3
v -0.3 0.8 -0.4
v 0.3 0.8 -0.4
v -0.3 0.8 -0.5
v 0.3 0.8 -0.5
v -0.3 0.2 0.5
v 0.3 0.2 0.5
v -0.3 0.2 0.4
v 0.3 0.2 0.4
v -0.5 0.2 0.3
v -0.4 0.2 0.3
v 0.4 0.2 0.3
v 0.5 0.2 0.3
v -0.5 0.2 -0.3
v -0.4 0.2 -0.3
v 0.4 0.2 -0.3
v 0.5 0.2 -0.3
v -0.3 0.2 -0.4
v 0.3 0.2 -0.4
v -0.3 0.2 -0.5
v 0.3 0.2 -0.5
v -0.2 0.7 0.5
v 0.2 0.7 0.5
v -0.2 0.7 0.4
v 0.2 0.7 0.4
v -0.5 0.7 0.2
v -0.4 0.7 0.2
v 0.4 0.7 0.2
v 0.5 0.7 0.2
v -0.5 0.7 -0.2
v -0.4 0.7 -0.2
v 0.4 0.7 -0.2
v 0.5 0.7 -0.2
v -0.2 0.7 -0.4
v 0.2 0.7 -0.4
v -0.2 0.7 -0.5
v 0.2 0.7 -0.5
v -0.5 1 0.5
v 0.5 1 0.5
v -0.5 1 -0.5
v 0.5 1 -0.5

# faces
f 3/2/1 2/2/1 1/2/1
f 4/2/1 2/2/1 3/2/1
f 5/3/1 4/3/1 3/3/1
f 6/3/1 4/3/1 5/3/1
f 9/3/1 8/3/1 7/3/1
f 10/3/1 8/3/1 9/3/1
f 11/3/1 9/3/1 7/3/1
f 11/2/1 10/2/1 9/2/1
f 12/3/1 8/3/1 10/3/1
f 12/2/1 10/2/1 11/2/1
f 13/3/1 11/3/1 7/3/1
f 13/3/1 12/3/1 11/3/1
f 14/3/1 8/3/1 12/3/1
f 14/3/1 12/3/1 13/3/1
f 15/3/1 5/3/1 3/3/1
f 16/3/1 4/3/1 6/3/1
f 17/2/1 3/2/1 1/2/1
f 17/3/1 16/3/1 15/3/1
f 17/3/1 15/3/1 3/3/1
f 18/3/1 4/3/1 16/3/1
f 18/3/1 16/3/1 17/3/1
f 18/2/1 2/2/1 4/2/1
f 19/2/1 17/2/1 1/2/1
f 19/2/1 18/2/1 17/2/1
f 20/2/1 2/2/1 18/2/1
f 20/2/1 18/2/1 19/2/1
f 23/4/1 22/4/1 21/4/1
f 24/4/1 22/4/1 23/4/1
f 25/4/1 23/4/1 21/4/1
f 26/4/1 22/4/1 24/4/1
f 27/4/1 25/4/1 21/4/1
f 27/4/1 26/4/1 25/4/1
f 28/4/1 22/4/1 26/4/1
f 28/4/1 26/4/1 27/4/1
f 33/3/1 30/3/1 29/3/1
f 34/3/1 30/3/1 33/3/1
f 35/3/1 32/3/1 31/3/1
f 36/3/1 32/3/1 35/3/1
f 41/3/1 38/3/1 37/3/1
f 42/3/1 38/3/1 41/3/1
f 43/3/1 40/3/1 39/3/1
f 44/3/1 40/3/1 43/3/1
f 45/3/2 46/3/2 49/3/2
f 49/3/2 46/3/2 50/3/2
f 47/3/2 48/3/2 51/3/2
f 51/3/2 48/3/2 52/3/2
f 53/3/2 54/3/2 57/3/2
f 57/3/2 54/3/2 58/3/2
f 55/3/2 56/3/2 59/3/2
f 59/3/2 56/3/2 60/3/2
f 61/4/2 62/4/2 63/4/2
f 63/4/2 62/4/2 64/4/2
f 61/4/2 63/4/2 65/4/2
f 64/4/2 62/4/2 66/4/2
f 61/4/2 65/4/2 67/4/2
f 65/4/2 66/4/2 67/4/2
f 66/4/2 62/4/2 68/4/2
f 67/4/2 66/4/2 68/4/2
f 69/2/2 70/2/2 71/2/2
f 71/2/2 70/2/2 72/2/2
f 71/3/2 72/3/2 73/3/2
f 73/3/2 72/3/2 74/3/2
f 75/3/2 76/3/2 77/3/2
f 77/3/2 76/3/2 78/3/2
f 75/3/2 77/3/2 79/3/2
f 77/2/2 78/2/2 79/2/2
f 78/3/2 76/3/2 80/3/2
f 79/2/2 78/2/2 80/2/2
f 75/3/2 79/3/2 81/3/2
f 79/3/2 80/3/2 81/3/2
f 80/3/2 76/3/2 82/3/2
f 81/3/2 80/3/2 82/3/2
f 71/3/2 73/3/2 83/3/2
f 74/3/2 72/3/2 84/3/2
f 69/2/2 71/2/2 85/2/2
f 83/3/2 84/3/2 85/3/2
f 71/3/2 83/3/2 85/3/2
f 84/3/2 72/3/2 86/3/2
f 85/3/2 84/3/2 86/3/2
f 72/2/2 70/2/2 86/2/2
f 69/2/2 85/2/2 87/2/2
f 85/2/2 86/2/2 87/2/2
f 86/2/2 70/2/2 88/2/2
f 87/2/2 86/2/2 88/2/2
f 91/2/3 90/2/3 89/2/3
f 92/2/3 90/2/3 91/2/3
f 93/3/3 92/3/3 91/3/3
f 94/3/3 92/3/3 93/3/3
f 97/3/3 96/3/3 95/3/3
f 98/3/3 96/3/3 97/3/3
f 99/3/3 97/3/3 95/3/3
f 99/2/3 98/2/3 97/2/3
f 100/3/3 96/3/3 98/3/3
f 100/2/3 98/2/3 99/2/3
f 101/3/3 99/3/3 95/3/3
f 101/3/3 100/3/3 99/3/3
f 102/3/3 96/3/3 100/3/3
f 102/3/3 100/3/3 101/3/3
f 103/3/3 93/3/3 91/3/3
f 104/3/3 92/3/3 94/3/3
f 105/2/3 91/2/3 89/2/3
f 105/3/3 104/3/3 103/3/3
f 105/3/3 103/3/3 91/3/3
f 106/3/3 92/3/3 104/3/3
f 106/3/3 104/3/3 105/3/3
f 106/2/3 90/2/3 92/2/3
f 107/2/3 105/2/3 89/2/3
f 107/2/3 106/2/3 105/2/3
f 108/2/3 90/2/3 106/2/3
f 108/2/3 106/2/3 107/2/3
f 111/4/3 110/4/3 109/4/3
f 112/4/3 110/4/3 111/4/3
f 113/4/3 111/4/3 109/4/3
f 114/4/3 110/4/3 112/4/3
f 115/4/3 113/4/3 109/4/3
f 115/4/3 114/4/3 113/4/3
f 116/4/3 110/4/3 114/4/3
f 116/4/3 114/4/3 115/4/3
f 119/3/3 118/3/3 117/3/3
f 120/3/3 118/3/3 119/3/3
f 123/3/3 122/3/3 121/3/3
f 124/3/3 122/3/3 123/3/3
f 127/3/3 126/3/3 125/3/3
f 128/3/3 126/3/3 127/3/3
f 131/3/3 130/3/3 129/3/3
f 132/3/3 130/3/3 131/3/3
f 133/3/4 134/3/4 135/3/4
f 135/3/4 134/3/4 136/3/4
f 137/3/4 138/3/4 139/3/4
f 139/3/4 138/3/4 140/3/4
f 141/3/4 142/3/4 143/3/4
f 143/3/4 142/3/4 144/3/4
f 145/3/4 146/3/4 147/3/4
f 147/3/4 146/3/4 148/3/4
f 149/4/4 150/4/4 151/4/4
f 151/4/4 150/4/4 152/4/4
f 149/4/4 151/4/4 153/4/4
f 152/4/4 150/4/4 154/4/4
f 149/4/4 153/4/4 155/4/4
f 153/4/4 154/4/4 155/4/4
f 154/4/4 150/4/4 156/4/4
f 155/4/4 154/4/4 156/4/4
f 157/2/4 158/2/4 159/2/4
f 159/2/4 158/2/4 160/2/4
f 159/3/4 160/3/4 161/3/4
f 161/3/4 160/3/4 162/3/4
f 163/3/4 164/3/4 165/3/4
f 165/3/4 164/3/4 166/3/4
f 163/3/4 165/3/4 167/3/4
f 165/2/4 166/2/4 167/2/4
f 166/3/4 164/3/4 168/3/4
f 167/2/4 166/2/4 168/2/4
f 163/3/4 167/3/4 169/3/4
f 167/3/4 168/3/4 169/3/4
f 168/3/4 164/3/4 170/3/4
f 169/3/4 168/3/4 170/3/4
f 159/3/4 161/3/4 171/3/4
f 162/3/4 160/3/4 172/3/4
f 157/2/4 159/2/4 173/2/4
f 171/3/4 172/3/4 173/3/4
f 159/3/4 171/3/4 173/3/4
f 172/3/4 160/3/4 174/3/4
f 173/3/4 172/3/4 174/3/4
f 160/2/4 158/2/4 174/2/4
f 157/2/4 173/2/4 175/2/4
f 173/2/4 174/2/4 175/2/4
f 174/2/4 158/2/4 176/2/4
f 175/2/4 174/2/4 176/2/4
f 179/2/5 178/2/5 177/2/5
f 180/2/5 178/2/5 179/2/5
f 183/3/5 182/3/5 181/3/5
f 184/3/5 182/3/5 183/3/5
f 189/3/5 186/3/5 185/3/5
f 190/3/5 186/3/5 189/3/5
f 191/3/5 188/3/5 187/3/5
f 192/3/5 188/3/5 191/3/5
f 195/3/5 194/3/5 193/3/5
f 196/3/5 194/3/5 195/3/5
f 199/3/5 198/3/5 197/3/5
f 200/3/5 198/3/5 199/3/5
f 205/3/5 202/3/5 201/3/5
f 206/3/5 202/3/5 205/3/5
f 207/3/5 204/3/5 203/3/5
f 208/3/5 204/3/5 207/3/5
f 211/3/5 210/3/5 209/3/5
f 212/3/5 210/3/5 211/3/5
f 213/3/6 214/3/6 215/3/6
f 215/3/6 214/3/6 216/3/6
f 217/3/6 218/3/6 221/3/6
f 221/3/6 218/3/6 222/3/6
f 219/3/6 220/3/6 223/3/6
f 223/3/6 220/3/6 224/3/6
f 225/3/6 226/3/6 227/3/6
f 227/3/6 226/3/6 228/3/6
f 229/3/6 230/3/6 231/3/6
f 231/3/6 230/3/6 232/3/6
f 233/3/6 234/3/6 237/3/6
f 237/3/6 234/3/6 238/3/6
f 235/3/6 236/3/6 239/3/6
f 239/3/6 236/3/6 240/3/6
f 241/3/6 242/3/6 243/3/6
f 243/3/6 242/3/6 244/3/6
f 245/2/6 246/2/6 247/2/6
f 247/2/6 246/2/6 248/2/6
